<?xml version="1.0" standalone="no"?>
<!DOCTYPE svg PUBLIC "-//W3C//DTD SVG 1.1//EN" "http://www.w3.org/Graphics/SVG/1.1/DTD/svg11.dtd" >
<svg xmlns="http://www.w3.org/2000/svg" xmlns:xlink="http://www.w3.org/1999/xlink" version="1.1">
<metadata>
Created by FontForge 20150824 at Sat Jan 30 01:11:14 2016
 By Everything Fonts
Copyright c 1992 Corel Corporation. All Rights Reserved.
</metadata>
<defs>
<font id="BahamasLight" horiz-adv-x="1141" >
  <font-face 
    font-family="BahamasLight"
    font-weight="400"
    font-stretch="normal"
    units-per-em="2048"
    panose-1="2 11 5 0 0 0 0 0 0 0"
    ascent="1638"
    descent="-410"
    x-height="973"
    cap-height="1436"
    bbox="-135 -483 2048 1917"
    underline-thickness="50"
    underline-position="-175"
    unicode-range="U+0020-F002"
  />
<missing-glyph horiz-adv-x="1536" 
d="M256 0v1280h1024v-1280h-1024zM1248 32v1216h-960v-1216h960z" />
    <glyph glyph-name=".notdef" horiz-adv-x="1536" 
d="M256 0v1280h1024v-1280h-1024zM1248 32v1216h-960v-1216h960z" />
    <glyph glyph-name=".null" horiz-adv-x="0" 
 />
    <glyph glyph-name="nonmarkingreturn" horiz-adv-x="0" 
 />
    <glyph glyph-name="space" unicode=" " horiz-adv-x="567" 
 />
    <glyph glyph-name="exclam" unicode="!" horiz-adv-x="457" 
d="M256 1460v-1175h-76v1175h76zM219 143q37 0 55.5 -20t18.5 -55q0 -31 -21.5 -55.5t-58.5 -24.5q-32 0 -51.5 24t-22.5 56q7 75 80 75z" />
    <glyph glyph-name="quotedbl" unicode="&#x22;" horiz-adv-x="680" 
d="M281 1436v-463h-76v463h76zM483 1436v-463h-75v463h75z" />
    <glyph glyph-name="numbersign" unicode="#" 
d="M528 1436l-67 -463h307l63 463h84l-63 -463h215l12 -80h-239l-43 -334h215l8 -84h-236l-63 -475h-88l67 475h-309l-63 -471h-88l67 471h-235l-9 84h256l46 334h-234l-6 80h252l63 463h88zM453 893l-50 -334h310l43 334h-303z" />
    <glyph glyph-name="dollar" unicode="$" 
d="M655 877q227 -59 304 -142.5t85 -193.5q0 -122 -56 -196t-143.5 -105t-189.5 -31v-209h-80v209h-356v72h356v534q-12 5 -96.5 34.5t-134.5 60t-86 86t-39 137.5q0 156 90 229.5t271 73.5v137h75v-137h318v-72h-318v-487zM580 899v465q-145 0 -214.5 -52.5t-72.5 -162.5
q2 -2 3 -4.5t1 -3.5q1 -60 38 -109.5t100 -83.5t145 -49zM655 281q106 0 176 29.5t104 82t34 119.5q0 101 -81 178.5t-233 106.5v-516z" />
    <glyph glyph-name="percent" unicode="%" horiz-adv-x="1821" 
d="M1397 1460l-953 -1485h-75l948 1485h80zM465 1384q-111 0 -175 -67.5t-67 -163.5q3 -94 67.5 -159.5t174.5 -65.5q96 3 151.5 71t55.5 160q0 94 -54 159.5t-153 65.5zM449 1464q97 0 167 -43t105 -114t35 -154q0 -55 -18 -110t-52 -96t-87 -67.5t-120 -27.5
q-157 0 -245 92.5t-91 218.5q2 79 37.5 148.5t104.5 111t164 41.5zM1313 508q-71 0 -121 -30.5t-76 -82t-29 -110.5q5 -98 69 -166t175 -68q58 1 104 38t71.5 94.5t25.5 115.5q0 92 -55 150.5t-164 58.5zM1321 588q96 -1 162 -43t97.5 -109t31.5 -143q0 -126 -78 -220
t-207 -98q-102 0 -174.5 43.5t-109.5 114.5t-39 148q1 79 38.5 151t108 114t170.5 42z" />
    <glyph glyph-name="ampersand" unicode="&#x26;" horiz-adv-x="1368" 
d="M1028 1436v-72h-563q-72 0 -111.5 -26.5t-42.5 -77.5q7 -79 70 -144l747 -844q14 18 31 58t29 97t12 122q0 226 -180 383l51 51q110 -96 157.5 -210t47.5 -232q0 -74 -16 -142t-38.5 -118t-41.5 -72l163 -209h-100l-115 152q-102 -92 -220.5 -134.5t-239.5 -42.5
q-117 0 -224 36t-172 89q-85 57 -149.5 182t-67.5 267q2 64 19 130.5t50 126t90.5 119.5t133.5 107q-63 82 -87.5 126t-29.5 81q18 95 66.5 146t142.5 51h588zM1071 209l-668 768q-135 -75 -200 -186t-68 -242q2 -86 32 -168t83 -149.5t127 -110.5q116 -64 291 -70
q123 3 228 41t175 117z" />
    <glyph glyph-name="quotesingle" unicode="'" horiz-adv-x="457" 
d="M231 1120h-75l59 316h84z" />
    <glyph glyph-name="parenleft" unicode="(" horiz-adv-x="797" 
d="M725 1415q-113 -92 -192 -199.5t-127.5 -219.5t-70.5 -225.5t-22 -219.5q1 -12 1.5 -21.5t0.5 -25.5q9 -147 45 -271.5t94 -227t130 -184t155 -153.5l-39 -49q-130 90 -233.5 230.5t-162 308.5t-64.5 342q0 295 116.5 548.5t327.5 411.5z" />
    <glyph glyph-name="parenright" unicode=")" horiz-adv-x="797" 
d="M483 532q-3 301 -122.5 516t-284.5 361l41 47q92 -71 170 -161.5t138.5 -202t98.5 -252.5t39 -303q-2 -173 -55.5 -344.5t-157 -322t-250.5 -255.5l-41 49q134 105 231 252.5t145 308t48 307.5z" />
    <glyph glyph-name="asterisk" unicode="*" horiz-adv-x="1024" 
d="M545 1436v-299l270 159l41 -49l-285 -168l285 -168l-41 -51l-270 164v-324h-62v324l-270 -164l-41 51l285 168l-281 168l33 49l274 -163v303h62z" />
    <glyph glyph-name="plus" unicode="+" horiz-adv-x="1229" 
d="M659 973v-445h441v-79h-441v-449h-84v449h-444v79h444v445h84z" />
    <glyph glyph-name="comma" unicode="," horiz-adv-x="567" 
d="M244 147h104l-104 -315l-84 4z" />
    <glyph glyph-name="hyphen" unicode="-" horiz-adv-x="680" 
d="M147 528h394v-79h-394v79z" />
    <glyph glyph-name="period" unicode="." horiz-adv-x="567" 
d="M272 143q39 0 59.5 -22.5t20.5 -57.5q0 -30 -20.5 -52.5t-55.5 -22.5q-34 0 -55 24.5t-24 55.5q7 75 75 75z" />
    <glyph glyph-name="slash" unicode="/" horiz-adv-x="567" 
d="M571 1460l-483 -1485h-84l483 1485h84z" />
    <glyph glyph-name="zero" unicode="0" 
d="M100 1004q0 95 48.5 203.5t154.5 182.5t264 74q115 0 205.5 -38.5t150 -103.5t90.5 -148.5t31 -178.5v-559q0 -118 -46 -221t-154 -170t-281 -70q-176 0 -279.5 76t-143.5 181.5t-40 203.5v568zM952 995q0 102 -34 176.5t-90 120.5t-125 69t-136 23q-65 -2 -130.5 -24.5
t-121.5 -71t-89 -122t-33 -171.5v-559q0 -157 89 -267t281 -110q166 0 252 67.5t111.5 151.5t25.5 158v559z" />
    <glyph glyph-name="one" unicode="1" 
d="M616 1436v-1436h-75l4 1364h-246l20 72h297z" />
    <glyph glyph-name="two" unicode="2" 
d="M193 0q-79 5 -89 92q8 60 35 84q87 84 210.5 179.5t225 174t177 152t120.5 154.5q48 98 48 184q0 80 -33.5 145.5t-91 113t-129.5 72.5t-150 25q-98 -12 -169 -61t-109.5 -118.5t-44.5 -147.5q0 -171 100 -265t270 -100l4 -8q-29 -25 -64.5 -42.5t-58.5 -17.5
q-55 11 -133.5 50.5t-144.5 129.5t-66 236q7 117 48.5 198.5t106.5 132t137.5 73t144.5 24.5q153 0 262 -64t163 -165.5t54 -214.5q0 -131 -64 -219q-68 -113 -185.5 -220t-237.5 -195t-223.5 -166t-104.5 -107q6 -25 75 -25h756v-84h-839z" />
    <glyph glyph-name="three" unicode="3" 
d="M131 1436h657q109 0 109 -80q0 -58 -53 -105q-55 -52 -116 -110t-102.5 -96t-105.5 -98t-112 -107h167q146 -4 238 -61.5t132.5 -142t45.5 -179.5q0 -114 -32 -200t-89 -143t-128.5 -85.5t-149.5 -28.5h-17l-454 4v76h475q114 6 183.5 57.5t98.5 132.5t29 183
q-13 112 -54 177.5t-108.5 95t-169.5 34.5h-290v55q67 67 111.5 109.5t143.5 138t163.5 157.5t93.5 93q12 12 12 22q0 29 -21 29h-657v72z" />
    <glyph glyph-name="four" unicode="4" 
d="M709 1460l-557 -907q-23 -37 -27 -53q6 -21 55 -21h563l5 881l75 96v-977h244v-71h-244v-408h-75v408h-533h-80q-85 0 -92 84q6 43 25 75l548 893h93z" />
    <glyph glyph-name="five" unicode="5" 
d="M893 1436v-72h-629v-520h344q111 0 198.5 -57t136 -155t48.5 -212q-1 -152 -68.5 -246.5t-166.5 -134t-201 -39.5h-420v84h414q91 0 172.5 41.5t131.5 118t50 176.5q-1 76 -26.5 141t-70.5 110t-103 69t-128 24h-391v672h709z" />
    <glyph glyph-name="six" unicode="6" 
d="M696 1436l-428 -639q-36 -56 -57 -99.5t-35 -101.5q-10 -65 -10 -111q0 -106 37.5 -189t99.5 -136t135 -78t142 -27q106 10 197.5 66.5t145.5 147.5t54 200q0 82 -28.5 158t-82 135.5t-132 95t-171.5 35.5q-82 0 -168 -29l62 92q56 13 118 13q136 0 247.5 -66t175 -179
t63.5 -245q0 -131 -60 -245t-167 -184.5t-238 -74.5q-59 0 -116 9t-110.5 31.5t-101 58t-92.5 86.5q-97 129 -104 309q11 199 125 371l395 596h104z" />
    <glyph glyph-name="seven" unicode="7" 
d="M76 1436h880q109 0 109 -97q0 -23 -16 -79l-557 -1260h-97l570 1280q16 50 16 51q0 23 -19 28t-77 5h-809v72z" />
    <glyph glyph-name="eight" unicode="8" 
d="M420 827q-111 42 -163.5 118t-55.5 179q4 25 4 60q6 52 43 116t116 112t203 48q102 0 187 -41.5t133.5 -119t48.5 -175.5q0 -203 -209 -301q104 -29 173.5 -91.5t103.5 -139.5t36 -143q0 -258 -147.5 -362.5t-308.5 -111.5q-118 0 -229.5 46t-186.5 145t-76 246
q2 2 3 4.5t1 3.5q0 91 44.5 180t120 150t159.5 77zM567 780q-119 0 -205 -52t-131 -137.5t-47 -178.5q2 -90 46.5 -172.5t134 -134.5t219.5 -58q119 6 204 57t126.5 130.5t41.5 168.5q0 99 -46 186t-134 139t-209 52zM580 848q127 3 199.5 85t72.5 191q0 70 -31 131.5
t-95 99.5t-151 38q-91 0 -155.5 -36.5t-98.5 -98t-36 -130.5q2 -70 36.5 -133.5t99.5 -103t159 -43.5z" />
    <glyph glyph-name="nine" unicode="9" 
d="M743 571l-55 -88q-32 -10 -125 -18q-85 2 -169.5 34t-158 99.5t-116.5 169t-43 231.5q6 108 51 194t118 146t158 90.5t168 30.5q20 0 58 -4q100 -10 184 -53.5t139.5 -108t86 -148.5t30.5 -173q0 -47 -4 -70q0 -51 -44 -162t-97 -178l-375 -563h-100l323 487
q69 98 109 162.5t68 142.5t28 156q0 86 -30.5 164.5t-87 139t-133.5 94.5t-167 34q-110 0 -200 -60.5t-142 -160t-53 -207.5q7 -169 121 -288q55 -58 138 -87t173 -32q107 7 147 26z" />
    <glyph glyph-name="colon" unicode=":" horiz-adv-x="567" 
d="M276 797q33 0 54.5 -22.5t21.5 -53.5q0 -34 -21 -56t-55 -22q-31 0 -53 23t-22 55q0 29 22.5 52.5t52.5 23.5zM276 143q19 0 37.5 -10t28.5 -28.5t10 -36.5q0 -32 -21 -54t-55 -22q-31 0 -53 23t-22 53q0 29 22 52t53 23z" />
    <glyph glyph-name="semicolon" unicode=";" horiz-adv-x="567" 
d="M244 147h104l-104 -311h-84zM276 797q37 0 56.5 -22t19.5 -54t-21 -56t-55 -24t-55 23.5t-24 52.5q3 35 22.5 57.5t56.5 22.5z" />
    <glyph glyph-name="less" unicode="&#x3c;" horiz-adv-x="1229" 
d="M1100 987v-90l-885 -410l885 -411v-88l-969 448v105z" />
    <glyph glyph-name="equal" unicode="=" horiz-adv-x="1229" 
d="M1100 717v-80h-969v80h969zM1100 256h-969v84h969v-84z" />
    <glyph glyph-name="greater" unicode="&#x3e;" horiz-adv-x="1229" 
d="M131 987l969 -446v-105l-969 -448v88l885 411l-885 410v90z" />
    <glyph glyph-name="question" unicode="?" horiz-adv-x="907" 
d="M420 143q39 0 59.5 -21.5t20.5 -53.5q0 -30 -21 -55t-55 -25q-33 0 -57 22t-27 53q3 33 25 55t55 25zM461 264h-76v445q124 0 217.5 39t136.5 112q45 85 45 193q0 92 -43 166.5t-118.5 117.5t-165.5 43q-81 0 -153 -32.5t-120 -104.5t-55 -186h-82q0 115 55.5 207.5
t149.5 144t201 51.5q113 0 207.5 -52.5t151 -149.5t56.5 -222q-6 -116 -53 -204.5t-135 -139.5q-55 -33 -105.5 -44t-113.5 -15v-369z" />
    <glyph glyph-name="at" unicode="@" horiz-adv-x="1640" 
d="M125 768q0 80 37.5 194.5t127.5 231.5t240.5 193.5t368.5 76.5q121 0 235.5 -49.5t201.5 -135t137.5 -197.5t50.5 -234q0 -100 -34 -199t-94.5 -184t-134 -137.5t-153.5 -63.5q-58 0 -92 16.5t-50 48.5t-26 83q-130 -137 -281 -144q-119 16 -188 99t-72 208
q5 102 38.5 203.5t95.5 190t150.5 141.5t193.5 53q162 0 227 -172l51 129h84q-39 -135 -82 -259.5t-77.5 -226t-55.5 -181.5q0 -21 -4 -33q8 -88 76 -88q66 0 143.5 58t135 167.5t65.5 257.5q0 145 -64.5 269.5t-180.5 202.5t-267 93q-21 2 -62 2q-194 0 -341 -84.5
t-228 -225.5t-92 -312q0 -15 -0.5 -23.5t-1.5 -19.5q0 -120 45 -239.5t142 -223t243 -162.5q155 -41 252 -45q69 2 138.5 18t134 48t127.5 86.5t126 136.5h84q-61 -113 -160 -194.5t-218.5 -121.5t-248.5 -40q-191 0 -362.5 89.5t-276 269t-104.5 429.5zM621 348
q33 -10 61 -10q90 0 174.5 80.5t136 201.5t51.5 232q0 185 -124 227q-38 8 -56 8q-75 0 -142.5 -47.5t-122 -127.5t-85 -172t-31.5 -173q3 -81 37 -139t101 -80z" />
    <glyph glyph-name="A" unicode="A" horiz-adv-x="1251" 
d="M215 0h-84v977q2 127 53 237t162.5 178t278.5 68q157 0 268.5 -65t169 -176t57.5 -246v-973h-88v700h-733v76h733v232q-5 110 -52.5 194t-138 131t-216.5 47q-116 0 -209 -43t-147 -129.5t-54 -208.5v-999z" />
    <glyph glyph-name="B" unicode="B" 
d="M131 0v1016q2 111 42.5 211.5t140 166.5t266.5 66q71 0 143.5 -21t127.5 -62.5t90.5 -104.5t39.5 -148q-2 -80 -16 -141.5t-58 -115t-131 -91.5q146 -43 213.5 -147t67.5 -230q0 -108 -41 -198t-137 -145.5t-250 -55.5h-330v76h272q110 0 201.5 26.5t150 97.5t58.5 195
q-2 81 -33.5 154.5t-116 125.5t-235.5 52q-14 0 -23 -0.5t-20 -1.5h-254v72h250q147 0 250.5 72t103.5 255q0 59 -28 117.5t-97 100t-182 47.5q-122 0 -208.5 -46t-128.5 -121.5t-44 -164.5v-1057h-84z" />
    <glyph glyph-name="C" unicode="C" horiz-adv-x="1024" 
d="M977 1436v-72h-176q-154 -3 -271.5 -54t-196.5 -138.5t-121 -198.5t-48 -234q0 -274 154 -456.5t487 -206.5h168v-76h-172q-185 0 -350.5 83.5t-268 252.5t-102.5 407q14 202 92 341.5t186.5 214.5t222 106t207.5 31h189z" />
    <glyph glyph-name="D" unicode="D" horiz-adv-x="1251" 
d="M131 1436h305q170 0 307 -55.5t232.5 -154.5t143.5 -223t48 -264q0 -167 -54.5 -306.5t-147 -234.5t-211.5 -146.5t-250 -51.5h-215v80h186q207 11 340 102t195 229.5t69 301.5q0 134 -58.5 282t-206.5 254.5t-394 106.5h-205v-1356h-84v1436z" />
    <glyph glyph-name="E" unicode="E" horiz-adv-x="1024" 
d="M928 1436v-72h-113q-160 0 -283.5 -50t-209 -136t-130.5 -190.5t-53 -211.5h789v-71h-789q0 -147 55 -264t149 -197.5t210 -122.5t235 -45h140v-76h-160q-113 0 -236 40t-232.5 129.5t-177 237.5t-67.5 353q0 100 40.5 215.5t129.5 220.5t238.5 172.5t359.5 67.5h105z
" />
    <glyph glyph-name="F" unicode="F" horiz-adv-x="907" 
d="M811 1436v-72h-274q-63 0 -133 -26t-127.5 -111.5t-57.5 -245.5v-225h592v-76h-592v-680h-88v981q0 201 100 325t269 130h311z" />
    <glyph glyph-name="G" unicode="G" horiz-adv-x="1591" 
d="M1356 1225l-60 -62q-86 107 -220.5 164t-278.5 57q-134 0 -252 -53.5t-204.5 -147t-135 -215t-49.5 -251.5q6 -166 75 -314q86 -167 237 -258t325 -94q154 2 294.5 75.5t231 217.5t100.5 344h-618v76h706q1 -11 1.5 -20t0.5 -23q0 -140 -47.5 -273.5t-139 -240.5
t-225 -169.5t-296.5 -62.5q-150 0 -284 58t-234.5 161.5t-157 238.5t-57.5 284q6 113 36 227q75 231 264 372t441 144q74 0 148.5 -15.5t149.5 -46t141.5 -76t107.5 -97.5z" />
    <glyph glyph-name="H" unicode="H" horiz-adv-x="1251" 
d="M231 1436v-648h793v648h88v-1436h-88v717h-793v-717h-88v1436h88z" />
    <glyph glyph-name="I" unicode="I" horiz-adv-x="457" 
d="M272 1436v-1436h-88v1436h88z" />
    <glyph glyph-name="J" unicode="J" horiz-adv-x="680" 
d="M541 1436v-1045q0 -159 -101 -265.5t-280 -125.5h-193v80h172q65 1 122.5 24t100 64.5t66 97t25.5 121.5v1049h88z" />
    <glyph glyph-name="K" unicode="K" 
d="M131 1436h88v-648h252q101 0 167.5 39t114 114.5t121 245.5t109.5 249h96q-50 -108 -112.5 -251.5t-103.5 -221t-85 -123.5t-106 -64q96 -9 167 -47.5t117 -97.5t69 -128.5t28 -146.5v-356h-88v332q0 92 -32 177.5t-124.5 146.5t-259.5 61h-33h-297v-717h-88v1436z" />
    <glyph glyph-name="L" unicode="L" horiz-adv-x="797" 
d="M215 1436v-1000q3 -165 89 -261t216 -99h281v-76h-318q-91 7 -172 58t-128.5 139.5t-51.5 205.5v1033h84z" />
    <glyph glyph-name="M" unicode="M" horiz-adv-x="1704" 
d="M143 0h-84l177 1317q10 65 30 104t82 39q45 0 68.5 -20.5t36.5 -59.5q98 -307 173 -564t128.5 -449t69.5 -243t28 -52q20 5 33 63l354 1200q12 30 20.5 53.5t20.5 38.5t31 24t53 9q53 0 74 -35t30 -86l185 -1339h-88l-181 1335q0 17 -8 31t-20 14q-26 0 -39 -63
l-365 -1249q-10 -39 -31.5 -61.5t-56.5 -22.5q-41 0 -64.5 12t-35.5 45l-383 1307q-13 32 -29 32q-23 0 -33 -67z" />
    <glyph glyph-name="N" unicode="N" horiz-adv-x="1251" 
d="M227 0h-88v1343q0 99 92 117q99 0 138 -76l592 -1267q6 -18 20.5 -36.5t26.5 -21.5q20 5 20 58v1343h88v-1372q0 -65 -24 -86t-72 -27q-97 0 -135 93l-586 1255q-7 24 -23.5 40.5t-31.5 16.5q-17 0 -17 -37v-1343z" />
    <glyph glyph-name="O" unicode="O" horiz-adv-x="1591" 
d="M797 1460q159 0 294.5 -62.5t233.5 -168.5t150.5 -239t52.5 -273q-2 -185 -92.5 -357t-257.5 -278.5t-381 -106.5q-170 0 -307 66t-231.5 175.5t-142.5 240t-48 256.5q0 125 47.5 258.5t140 244t231 177.5t310.5 67zM797 51q156 1 277 62t201 159.5t119.5 215t41.5 229.5
q0 116 -41.5 231.5t-122.5 212.5t-202 156.5t-273 62.5q-194 0 -340.5 -99t-223.5 -253.5t-77 -314.5q2 -164 80 -317.5t223 -249t338 -95.5z" />
    <glyph glyph-name="P" unicode="P" horiz-adv-x="1024" 
d="M289 655h278q148 0 248 98t100 263q0 65 -23.5 147t-102.5 151t-222 70q-198 -9 -277 -117.5t-79 -258.5q0 -35 2 -52v-956h-88v956q0 15 -0.5 24t-1.5 19q0 167 66.5 271t166.5 147t207 43q125 0 225.5 -49.5t158 -151t57.5 -251.5q-9 -200 -122 -309.5t-311 -118.5
h-282v75z" />
    <glyph glyph-name="Q" unicode="Q" horiz-adv-x="1591" 
d="M868 395v-336q142 16 272 101.5t212 231.5t82 333q0 43 -2 63q-5 85 -47 187.5t-122.5 196t-198.5 152.5t-271 60q-144 0 -265 -56t-204.5 -152.5t-126.5 -217t-43 -251.5q1 -11 1.5 -20t0.5 -23q19 -201 120.5 -336t223 -200t196.5 -65v-83q-108 16 -238.5 79.5
t-245.5 210.5t-144 389q0 16 -0.5 25.5t-1.5 20.5q0 217 101 390t268.5 269t357.5 96t332 -75.5t228.5 -186.5t127.5 -220t43 -177q2 -25 2 -74q0 -171 -62 -310.5t-160 -232.5t-213 -144.5t-223 -59.5v-291h-80v706h80z" />
    <glyph glyph-name="R" unicode="R" 
d="M215 0h-84v983q0 82 21.5 164t69.5 153t129 115t194 45q164 0 265.5 -61t143 -146t41.5 -166q0 -122 -62.5 -223t-176.5 -137q89 -14 151 -64t89.5 -118t27.5 -137v-408h-88v420q0 123 -97 191.5t-284 68.5h-256v76h250q119 0 198.5 43.5t117.5 116t38 155.5t-39 155
t-119.5 115t-195.5 43q-138 -4 -236 -92.5t-98 -314.5v-977z" />
    <glyph glyph-name="S" unicode="S" 
d="M969 1436v-76h-406q-234 0 -308.5 -70t-78.5 -186q4 -8 4 -25q3 -75 48 -126.5t111.5 -83.5t151.5 -58t173 -51q106 -33 177.5 -68.5t118.5 -82t69 -107t22 -144.5q0 -30 -2 -47q-8 -69 -37 -126.5t-85 -98.5t-145.5 -63.5t-216.5 -22.5h-49h-428v80h428h29q11 -1 24 -2
q141 0 227 36t123 90.5t42 114.5q0 115 -51 188t-129 111t-224 81t-201 61q-94 36 -170.5 104.5t-93.5 184.5q0 34 -4 59q4 138 93.5 234t324.5 96h31q12 -1 26 -2h406z" />
    <glyph glyph-name="T" unicode="T" horiz-adv-x="907" 
d="M907 1436v-76h-407v-1360h-88v1360h-408v76h903z" />
    <glyph glyph-name="U" unicode="U" horiz-adv-x="1251" 
d="M215 1436v-971q0 -175 75.5 -266.5t168 -118.5t174.5 -29q113 0 204 49.5t143 143t52 221.5v971h88v-932q0 -130 -42.5 -246.5t-148.5 -195.5t-286 -87q-239 0 -375.5 131.5t-136.5 397.5v932h84z" />
    <glyph glyph-name="V" unicode="V" horiz-adv-x="1024" 
d="M47 1436l414 -1336q16 -51 35 -57q29 7 41 57l444 1336h84l-457 -1385q-30 -76 -112 -76q-37 0 -69 26.5t-42 66.5l-422 1368h84z" />
    <glyph glyph-name="W" unicode="W" horiz-adv-x="1931" 
d="M215 1436v-1067q8 -154 110 -234t234 -80q94 0 178 48.5t135.5 141t51.5 216.5v10v965h88v-975q1 -143 59.5 -234.5t143.5 -131.5t169 -40q80 2 156 37.5t126 112t54 194.5v1037h84v-1049q0 -140 -66.5 -233t-164.5 -136t-193 -43q-130 0 -231.5 57t-179.5 204
q-71 -129 -171 -195t-239 -66q-85 0 -163.5 27.5t-138.5 80.5t-93 126t-33 160v1067h84z" />
    <glyph glyph-name="X" unicode="X" horiz-adv-x="1251" 
d="M625 500q-17 -77 -59 -159t-115 -160t-177.5 -127.5t-236.5 -53.5v88q123 0 250.5 79.5t212 225t84.5 324.5q0 181 -80.5 327.5t-206 228.5t-260.5 87v84q124 -3 226 -48.5t176.5 -120t121.5 -161t68 -170.5q53 201 202 347.5t390 152.5v-84q-148 -6 -274.5 -93
t-202.5 -233t-76 -321q6 -181 91 -324t212 -222t250 -79v-88q-254 11 -392.5 157.5t-203.5 342.5z" />
    <glyph glyph-name="Y" unicode="Y" 
d="M219 1436v-404q0 -113 52 -192.5t132.5 -119.5t163.5 -40q108 0 190 47.5t124.5 128.5t42.5 176v404h88v-396q-1 -110 -39 -194.5t-96.5 -137.5t-127.5 -80.5t-133 -27.5v-600h-88v600q-85 1 -159 37t-127 97.5t-82 138t-29 159.5v404h88z" />
    <glyph glyph-name="Z" unicode="Z" horiz-adv-x="1024" 
d="M121 1436h659q96 0 134 -25t38 -72q0 -40 -32 -96l-764 -1079q-1 -2 -11.5 -21.5t-13.5 -33.5q9 -29 49 -29h785v-80h-840q-39 0 -64 27.5t-28 68.5q6 52 35 97l755 1067q33 41 33 71q0 29 -33 29h-702v76z" />
    <glyph glyph-name="bracketleft" unicode="[" horiz-adv-x="567" 
d="M465 1436v-76h-201v-1659h201v-82h-277v1817h277z" />
    <glyph glyph-name="backslash" unicode="\" horiz-adv-x="567" 
d="M-51 1460l760 -1485h-84l-760 1485h84z" />
    <glyph glyph-name="bracketright" unicode="]" horiz-adv-x="567" 
d="M385 1436v-1817h-276v78h198v1659h-198v80h276z" />
    <glyph glyph-name="asciicircum" unicode="^" horiz-adv-x="1229" 
d="M664 1436l440 -873h-96l-392 785l-397 -785h-94l442 873h97z" />
    <glyph glyph-name="underscore" unicode="_" horiz-adv-x="1024" 
d="M1024 -152v-104h-1024v104h1024z" />
    <glyph glyph-name="grave" unicode="`" horiz-adv-x="457" 
d="M-4 1380h104l244 -284h-76z" />
    <glyph glyph-name="a" unicode="a" 
d="M848 197v-97q-68 -53 -144 -84.5t-159 -31.5q-142 0 -251 70t-166.5 189t-57.5 257q0 30 2 45q11 115 59.5 202.5t117.5 140.5t141 78t138 25q129 0 224 -47.5t153 -123t84.5 -161.5t26.5 -163v-496h-80v500q-6 141 -68 235.5t-152.5 139.5t-183.5 45q-94 -4 -167 -48
t-118.5 -106.5t-68 -125t-22.5 -99.5q-2 -17 -2 -45q0 -184 101 -301.5t253 -139.5q212 0 340 142z" />
    <glyph glyph-name="b" unicode="b" 
d="M588 -20q-140 6 -246 78t-161.5 187.5t-55.5 241.5v949h80v-949q0 -126 55.5 -225t146 -153t185.5 -54q63 0 130.5 28.5t124 81t95 125.5t45.5 159q2 14 2 43q0 79 -28.5 155t-81 136.5t-124 97t-151.5 39.5q-92 0 -171.5 -39.5t-135.5 -104.5v92q73 65 149.5 94
t182.5 29q90 -3 171 -42.5t142 -107.5t96 -158.5t35 -193.5q0 -13 -0.5 -21.5t-1.5 -18.5q-14 -191 -104.5 -295.5t-195 -139t-183.5 -34.5z" />
    <glyph glyph-name="c" unicode="c" horiz-adv-x="797" 
d="M721 991v-80q-61 7 -103 7q-231 0 -344.5 -121t-113.5 -305q9 -127 59 -219t150.5 -142.5t253.5 -50.5q63 0 98 4v-84q-12 0 -43 -2t-49 -2q-210 0 -373 107.5t-176 388.5q4 178 81 290.5t197 162.5t258 50q72 0 105 -4z" />
    <glyph glyph-name="d" unicode="d" 
d="M1020 1436v-940q-7 -217 -105 -333t-204.5 -149.5t-173.5 -33.5q-139 1 -246 76t-163 190.5t-56 228.5q0 106 38.5 200.5t104.5 164.5t153 110.5t181 40.5q169 0 299 -119v-100q-126 143 -293 143q-78 0 -151.5 -35.5t-129 -97t-89 -144.5t-33.5 -173q0 -73 30.5 -146
t86 -134t126.5 -95.5t150 -34.5q86 0 173 43t149.5 138.5t72.5 242.5v957h80z" />
    <glyph glyph-name="e" unicode="e" 
d="M897 772q-52 69 -136.5 106t-180.5 37q-90 0 -176.5 -38t-149 -118t-86.5 -196q-2 -12 -4 -38.5t-4 -41.5q2 -86 35.5 -170t104.5 -150.5t183 -99.5q66 -8 92 -12q93 1 169.5 32.5t135.5 89.5t92.5 134.5t39.5 161.5h80q-6 -148 -77.5 -259.5t-183.5 -168.5t-239 -57
q-106 0 -199 38t-163 106.5t-110.5 161.5t-43.5 197q5 137 71.5 252.5t179 183.5t248.5 68q94 0 183 -31.5t155.5 -85.5t102.5 -118l-697 -471l-47 63z" />
    <glyph glyph-name="f" unicode="f" horiz-adv-x="567" 
d="M604 1436v-72h-160q-116 -9 -177.5 -79t-61.5 -193v-119h399v-74h-399v-899h-80v1137q0 130 93 214.5t253 84.5h133z" />
    <glyph glyph-name="g" unicode="g" 
d="M848 104q-131 -120 -311 -120q-189 0 -327 147t-138 385q16 160 84.5 268.5t171 161.5t213.5 53q94 0 179 -34t152.5 -100.5t105.5 -162t38 -219.5v-475q0 -122 -39.5 -214t-108 -148.5t-157 -83.5t-191.5 -27q-147 0 -272 49l24 72q117 -47 256 -47q179 0 295.5 101.5
t116.5 330.5v446q0 131 -56.5 227t-149 146.5t-193.5 50.5q-97 0 -182.5 -46t-141 -138.5t-65.5 -230.5q0 -113 52 -214.5t141 -163.5t192 -63q82 3 160 40.5t151 113.5v-105z" />
    <glyph glyph-name="h" unicode="h" horiz-adv-x="1024" 
d="M205 1436v-600q48 75 133 115t182 40q73 0 140 -23t119.5 -70t86 -120t37.5 -170v-608h-76v575q-1 111 -44 188t-112.5 114.5t-150.5 37.5q-76 0 -147.5 -35.5t-117.5 -104t-50 -159.5v-616h-80v1436h80z" />
    <glyph glyph-name="i" unicode="i" horiz-adv-x="457" 
d="M268 973v-973h-75v973h75zM293 1243q0 -25 -19.5 -40.5t-46.5 -18.5q-23 4 -41 19.5t-18 39.5q0 30 17 48t42 18q30 0 48 -16.5t18 -49.5z" />
    <glyph glyph-name="j" unicode="j" horiz-adv-x="457" 
d="M268 973v-1145q-1 -96 -52 -162t-134.5 -98.5t-185.5 -32.5v74q141 0 213.5 63t78.5 168v1133h80zM227 1309q30 0 46 -18t16 -48q0 -22 -17.5 -40.5t-44.5 -18.5t-43 18t-20 41q3 29 19 47.5t44 18.5z" />
    <glyph glyph-name="k" unicode="k" horiz-adv-x="907" 
d="M205 492v-492h-80v1436h80v-869h164q43 0 80 25t76.5 75t93 130.5t116.5 175.5h101q-58 -80 -128 -189.5t-101 -150.5t-75 -70v-4q127 -8 198 -87.5t71 -219.5v-252h-76v256q0 63 -29.5 116t-82.5 85t-121 35h-287z" />
    <glyph glyph-name="l" unicode="l" horiz-adv-x="457" 
d="M268 1436v-1436h-80v1436h80z" />
    <glyph glyph-name="m" unicode="m" horiz-adv-x="1481" 
d="M121 0v676q4 78 33.5 138.5t77 99.5t105 58t116.5 19q101 0 181.5 -49t104.5 -137q27 89 108.5 139.5t180.5 50.5q64 0 121 -20.5t103 -61t75.5 -105t32.5 -144.5v-664h-76v668q-6 80 -42 136t-92.5 83.5t-117.5 27.5q-99 0 -174 -68t-78 -183v-664h-75v655
q0 121 -75.5 193t-180.5 72q-63 0 -118.5 -29.5t-91.5 -89.5t-42 -146v-655h-76z" />
    <glyph glyph-name="n" unicode="n" horiz-adv-x="1024" 
d="M205 0h-80v604q0 74 35 161t119 154.5t221 71.5q109 0 200.5 -46.5t146.5 -136.5t56 -212v-596h-80v584q0 71 -32 149.5t-102 132.5t-177 54h-4q-82 0 -152 -44t-110.5 -117.5t-40.5 -158.5v-600z" />
    <glyph glyph-name="o" unicode="o" 
d="M571 991q108 0 200.5 -42.5t156.5 -113t98.5 -162.5t34.5 -186q0 -83 -30 -171.5t-92 -164.5t-156 -123t-212 -48q-153 0 -264.5 75.5t-170 194t-60.5 237.5q0 110 55.5 227.5t168.5 197t271 79.5zM571 51q130 0 224 69t140 170t46 197q-2 107 -53.5 206.5t-143.5 161.5
t-213 65q-91 0 -166.5 -35.5t-129.5 -95.5t-84.5 -139.5t-30.5 -162.5q0 -103 48 -203t141.5 -166t221.5 -67z" />
    <glyph glyph-name="p" unicode="p" 
d="M205 -471h-80v1008q3 74 31.5 149t86 145t144.5 113.5t201 46.5q110 0 201 -41.5t153 -111.5t95.5 -160t33.5 -182q0 -137 -62.5 -255.5t-171 -187.5t-241.5 -69q-84 0 -161.5 32t-137.5 88v93q121 -142 319 -142q78 9 145.5 44t119 95.5t79 139.5t27.5 174q0 90 -47 186
t-139 161t-221 65q-108 -6 -191 -62.5t-129.5 -141t-54.5 -179.5v-1008z" />
    <glyph glyph-name="q" unicode="q" 
d="M940 -461v953q0 88 -30 165t-87 137t-134.5 93t-172.5 33q-111 -10 -194 -79.5t-126.5 -172.5t-43.5 -215q7 -103 62 -193.5t139 -145.5t171 -59q103 0 179 36.5t145 105.5v-93q-74 -66 -152.5 -95t-175.5 -29q-158 7 -293.5 128.5t-154.5 335.5q-2 15 -2 43
q0 129 54 240.5t153 182.5t227 81q179 0 295.5 -81t168.5 -193t52 -209v-12v-957h-80z" />
    <glyph glyph-name="r" unicode="r" horiz-adv-x="567" 
d="M205 973v-189q100 189 315 189h64v-76q-38 4 -56 4q-88 0 -159.5 -44.5t-114.5 -129.5t-49 -199v-528h-80v973h80z" />
    <glyph glyph-name="s" unicode="s" horiz-adv-x="907" 
d="M764 899h-432q-85 -1 -126.5 -46.5t-41.5 -113.5q3 -90 78 -125t242 -74t255.5 -93.5t96.5 -178.5q0 -148 -81.5 -208t-201.5 -60h-12h-461v76h457q105 0 158.5 46t56.5 122q0 75 -50.5 119.5t-108 62t-187 48.5t-183.5 54q-147 64 -147 215q0 70 55 150t188 80h445v-74z
" />
    <glyph glyph-name="t" unicode="t" horiz-adv-x="567" 
d="M205 1239v-266h344v-74h-344v-647q9 -105 67 -140.5t152 -39.5q47 4 125 4v-76h-158q-118 3 -192 75t-74 210v954h80z" />
    <glyph glyph-name="u" unicode="u" horiz-adv-x="1024" 
d="M205 973v-604q4 -92 50 -164t117.5 -110t147.5 -40q57 2 110 23t93.5 58.5t68 97t31.5 131.5v608h80v-608q-1 -91 -35 -164t-88 -120.5t-123.5 -72t-144.5 -24.5q-99 0 -187 42.5t-142.5 126.5t-57.5 203v617h80z" />
    <glyph glyph-name="v" unicode="v" horiz-adv-x="907" 
d="M827 973h93l-367 -930q-18 -63 -96 -63q-31 0 -57 14.5t-35 38.5l-369 940h88l348 -877q12 -31 25 -37q13 4 26 37z" />
    <glyph glyph-name="w" unicode="w" horiz-adv-x="1481" 
d="M197 973v-666q9 -119 82 -186t170 -70q99 3 173.5 71.5t77.5 184.5v666h80v-674q3 -57 25 -103.5t56 -77.5t77.5 -48t89.5 -19q103 3 176.5 72t79.5 192v658h76v-658q0 -90 -39 -166.5t-113 -122.5t-172 -46q-226 0 -293 192h-4q-63 -192 -290 -192q-129 0 -225 84
t-103 239v670h76z" />
    <glyph glyph-name="x" unicode="x" horiz-adv-x="907" 
d="M37 973q87 0 170 -34t148.5 -99.5t101.5 -151.5q59 131 167 208t253 77v-74q-111 -3 -197.5 -64.5t-133 -156.5t-46.5 -191q2 -103 48 -196t131 -152t198 -63v-80q-92 8 -171 38.5t-141.5 91.5t-107.5 159q-66 -141 -167.5 -209t-248.5 -80v84q78 0 145 32.5t118 89.5
t80 127.5t32 145.5q0 77 -24.5 149t-74 133.5t-122 100t-158.5 41.5v74z" />
    <glyph glyph-name="y" unicode="y" horiz-adv-x="1024" 
d="M555 -16v-424h-84v424q-65 6 -123.5 31.5t-106 71.5t-78.5 111t-38 150v625h76v-588q0 -99 45.5 -174.5t116.5 -115.5t145 -40q78 0 149 38.5t116.5 110.5t49.5 169v600h80v-600q-7 -174 -104.5 -275t-243.5 -114z" />
    <glyph glyph-name="z" unicode="z" horiz-adv-x="797" 
d="M88 973h559q44 0 64 -23t20 -61q0 -52 -31 -92l-507 -613q-35 -39 -47 -55t-15 -33q5 -16 45 -16h580v-80h-627q-32 0 -57.5 20.5t-28.5 55.5q7 74 74 147l512 621q8 16 8 24q0 29 -29 29h-520v76z" />
    <glyph glyph-name="braceleft" unicode="{" horiz-adv-x="567" 
d="M135 500v75q61 0 87 89t26 229v324q0 139 33.5 191t103.5 52h80v-76h-78q-32 0 -47.5 -41.5t-15.5 -162.5v-320q0 -138 -37 -216.5t-68 -102.5v-4q14 -9 38.5 -46t45.5 -108t21 -164v-319q0 -118 15.5 -158.5t47.5 -40.5h78v-82h-80q-47 0 -76.5 21.5t-45 75t-15.5 153.5
v319q0 136 -26 224t-87 88z" />
    <glyph glyph-name="bar" unicode="|" horiz-adv-x="457" 
d="M188 1436h80v-1436h-80v1436z" />
    <glyph glyph-name="braceright" unicode="}" horiz-adv-x="567" 
d="M436 571v-75q-112 0 -112 -316v-323q0 -140 -33 -192t-103 -52h-79v76h79q21 0 33.5 16t19.5 59t7 127v322q0 138 37 215t71 104v5q-15 9 -40.5 45.5t-46.5 107t-21 162.5v319q0 120 -14 162.5t-46 42.5h-79v76h79q71 0 103.5 -52t32.5 -196v-315q0 -318 112 -318z" />
    <glyph glyph-name="asciitilde" unicode="~" horiz-adv-x="1229" 
d="M129 420q109 172 258 172q56 0 106.5 -15.5t124.5 -47.5t125.5 -50t104.5 -22q59 3 102.5 36t93.5 107l56 -45q-42 -80 -110.5 -127.5t-153.5 -50.5q-52 4 -94.5 19t-122 51.5t-129 52.5t-103.5 16q-122 0 -203 -143z" />
    <glyph glyph-name="nonbreakingspace" unicode="&#xa0;" horiz-adv-x="1536" 
 />
    <glyph glyph-name="exclamdown" unicode="&#xa1;" horiz-adv-x="457" 
d="M240 1004q34 0 54.5 -22t20.5 -54q0 -31 -20 -53.5t-55 -22.5q-37 0 -58.5 24.5t-21.5 55.5q3 32 26 52t54 20zM281 713v-1178h-80v1178h80z" />
    <glyph glyph-name="cent" unicode="&#xa2;" 
d="M504 1141v295h80v-295h168v-76h-248q-68 0 -134 -27.5t-110 -88t-47 -152.5q2 -81 27 -150t89.5 -114.5t174.5 -45.5h248v-75h-168v-324h-80v324q-84 0 -154 25.5t-122 75t-79 113t-28 138.5q4 12 4 33q2 89 43.5 166.5t126.5 127t209 50.5z" />
    <glyph glyph-name="sterling" unicode="&#xa3;" 
d="M268 721h-137v84h137q0 80 -4 110q1 133 18 222t47.5 141.5t78.5 97.5q93 84 243 84q97 0 221 -37l-28 -71q-95 28 -189 28q-121 0 -190 -63q-48 -40 -74.5 -104.5t-35.5 -143.5t-11 -172q4 -29 4 -92h252v-84h-252v-385q0 -87 -32.5 -151.5t-88.5 -100.5h414
q104 3 169.5 35t109.5 94q57 75 57 256v84h80v-109q0 -180 -58 -268q-53 -82 -133 -127t-178 -45h-708v76q141 0 211 69t77 179v393z" />
    <glyph glyph-name="currency" unicode="&#xa4;" 
d="M143 752q0 -164 104 -308t324 -151q110 3 191 44.5t134 108.5t78 144t25 145q-7 116 -68 210.5t-156.5 148t-203.5 55.5q-81 0 -157 -33.5t-135 -91.5t-94.5 -128.5t-41.5 -143.5zM131 1221l113 -113q71 59 154 90t169 31q65 0 124 -15t113.5 -43t94.5 -63l113 113
l59 -62l-110 -115q59 -65 88.5 -149t29.5 -170q0 -97 -33 -187t-85 -147l110 -110l-59 -62l-113 113q-148 -121 -328 -127q-51 1 -106.5 15t-109.5 40.5t-111 71.5l-113 -113l-59 62l112 110q-51 67 -86.5 152.5t-38.5 177.5q7 173 125 323l-112 111z" />
    <glyph glyph-name="yen" unicode="&#xa5;" 
d="M504 889q-29 134 -105.5 241.5t-176.5 166.5t-193 59v80q156 -8 272 -90t182.5 -193t83.5 -201h4q35 134 116 243.5t193.5 174.5t235.5 66v-80q-114 -1 -216.5 -72.5t-172.5 -180t-90 -214.5h416v-84h-432q-9 -41 -9 -137h441v-80h-441v-588h-80v588h-444v80h444v53
q0 34 -8 84h-436v84h416z" />
    <glyph glyph-name="brokenbar" unicode="&#xa6;" horiz-adv-x="303" 
d="M197 1419h96v-1419h-96v1419z" />
    <glyph glyph-name="section" unicode="&#xa7;" horiz-adv-x="1024" 
d="M860 1268l-67 -43q-48 83 -128 127.5t-169 44.5q-63 0 -117 -24t-88 -71.5t-35 -109.5q4 -87 74 -146t210 -125.5t220 -119.5t108 -133q17 -51 17 -93q0 -57 -27.5 -109t-70.5 -84t-91 -38v-4q70 -50 111 -105.5t41 -138.5q-3 -118 -95.5 -187t-224.5 -69
q-64 0 -126 16.5t-118 52t-96 83.5l56 55q42 -57 127.5 -92t173.5 -35q99 0 161 50t62 155q-7 63 -60 116t-118 88t-174 87t-140 71q-55 34 -89.5 90.5t-39.5 118.5q5 88 64 149t174 70l2 5q-103 45 -153.5 116.5t-53.5 151.5q8 40 8 51q6 62 50.5 114.5t114.5 81.5t147 29
q102 0 195.5 -47.5t164.5 -148.5zM752 717q-71 65 -164 100t-180 35q-83 0 -131.5 -38.5t-57.5 -117.5q1 -64 58 -118t130 -88t164 -66q25 -9 66 -16q41 0 81.5 22t65.5 61t25 84q0 74 -57 142z" />
    <glyph glyph-name="dieresis" unicode="&#xa8;" horiz-adv-x="457" 
d="M63 1284q32 0 52 -18.5t20 -44.5q0 -32 -17.5 -54t-54.5 -22q-27 0 -47 21t-20 51q0 23 19 45t48 22zM391 1284q30 0 50 -19t20 -44q0 -29 -19.5 -52.5t-50.5 -23.5q-30 0 -51 22t-21 50q5 27 23.5 47t48.5 20z" />
    <glyph glyph-name="copyright" unicode="&#xa9;" horiz-adv-x="1640" 
d="M815 -25q-153 0 -287 63.5t-231.5 172.5t-151 247t-53.5 277q9 138 60.5 268.5t145 233.5t224.5 162.5t293 60.5q170 0 310 -65.5t233.5 -171t143.5 -237.5t50 -265q0 -202 -98 -372t-267 -270.5t-372 -103.5zM809 55q141 0 260.5 55t208 151.5t134.5 214t48 241.5
q0 164 -81.5 318.5t-228 251.5t-327.5 97q-142 -1 -259 -56t-203.5 -150t-131.5 -209.5t-45 -229.5q0 -169 70.5 -323.5t213.5 -254.5t341 -106zM1196 881h-84q-67 206 -301 206q-70 -3 -125 -32t-94.5 -80t-61.5 -122.5t-22 -152.5q1 -96 49 -177.5t123.5 -128t155.5 -46.5
q92 0 169 48.5t107 170.5h84q-47 -156 -141 -223.5t-211 -67.5q-167 0 -292 108.5t-136 324.5q0 119 48 220.5t137.5 164t207.5 69.5q96 0 176 -31.5t135 -94.5t76 -156z" />
    <glyph glyph-name="ordfeminine" unicode="&#xaa;" horiz-adv-x="684" 
d="M520 1024v-80q-65 -86 -201 -92q-8 4 -26 4q-144 17 -210.5 111.5t-66.5 224.5q11 92 60.5 152.5t114 88t120.5 27.5q110 0 183 -44.5t106 -113t33 -139.5v-295h-70v299q-4 78 -42 131t-93 78t-113 25q-79 -1 -131.5 -40.5t-76 -89t-23.5 -83.5q0 -123 58.5 -191
t156.5 -82q75 0 133 29.5t88 79.5z" />
    <glyph glyph-name="guillemotleft" unicode="&#xab;" horiz-adv-x="797" 
d="M696 809l-247 -322l243 -319h-96l-248 319l248 322h100zM440 809l-243 -322l243 -319h-96l-244 319l244 322h96z" />
    <glyph glyph-name="logicalnot" unicode="&#xac;" horiz-adv-x="1229" 
d="M1100 717v-461h-84v377h-885v84h969z" />
    <glyph glyph-name="registered" unicode="&#xae;" horiz-adv-x="1640" 
d="M541 1145h319q112 0 173 -31t83.5 -84t24.5 -123q0 -109 -60 -155t-157 -64l264 -412h-113l-248 412h-206v-412h-80v869zM621 760h223q130 0 169.5 44.5t39.5 115.5q0 72 -50 109.5t-139 37.5h-243v-307zM809 1460q194 -1 337.5 -75.5t231.5 -188.5t129 -239t41 -232
q-4 -172 -65 -311t-163.5 -237t-234 -150t-266.5 -52q-150 5 -280 60t-232.5 159t-158.5 245.5t-56 308.5q7 166 74 299t172.5 225t229.5 140t241 48zM823 51q121 1 236 52.5t206.5 144.5t143 216t51.5 263q-3 135 -51 253.5t-134.5 209.5t-204 142t-255.5 52
q-167 0 -310 -85.5t-229.5 -232.5t-95.5 -318q0 -147 47 -273t135.5 -222t207.5 -149t253 -53z" />
    <glyph glyph-name="plusminus" unicode="&#xb1;" horiz-adv-x="1229" 
d="M571 612v361h84v-361h445v-80h-445v-360h-84v360h-440v80h440zM131 0v84h969v-84h-969z" />
    <glyph glyph-name="twosuperior" unicode="&#xb2;" horiz-adv-x="680" 
d="M625 647v-63h-545q-55 0 -55 63q0 41 52.5 82.5t191 138t209.5 170t71 146.5q0 104 -56 158.5t-174 54.5q-115 0 -169 -54t-54 -155q0 -73 59 -122.5t169 -49.5v-4q-24 -29 -40 -44.5t-32 -15.5q-69 0 -150.5 65.5t-81.5 170.5q0 127 78.5 199.5t220.5 72.5
q64 0 118.5 -15t96.5 -46.5t66.5 -85t24.5 -129.5q0 -82 -73.5 -165t-196 -167t-191 -129.5t-68.5 -63.5q0 -12 13 -12h516z" />
    <glyph glyph-name="threesuperior" unicode="&#xb3;" horiz-adv-x="680" 
d="M55 1380v64h424q74 0 74 -43q0 -39 -33 -66l-284 -248h100q88 0 153.5 -31.5t98.5 -86t33 -125.5q0 -127 -80.5 -193.5t-225.5 -66.5h-268v63h301q89 0 143 50t54 130q0 59 -24.5 104t-75.5 69t-126 24h-167v68l297 260q16 16 16 20q0 8 -4 8h-406z" />
    <glyph glyph-name="acute" unicode="&#xb4;" horiz-adv-x="457" 
d="M461 1376l-273 -280h-75l243 280h105z" />
    <glyph glyph-name="mu" unicode="&#xb5;" horiz-adv-x="1024" 
d="M823 973h76v-592q0 -118 -51 -209t-140.5 -141.5t-195.5 -50.5q-94 0 -174.5 40t-132.5 111h-4v-600h-76v1442h76v-586q0 -95 42 -172.5t113.5 -120.5t155.5 -43q62 0 119 23.5t101 70t67.5 108.5t23.5 134v586z" />
    <glyph glyph-name="paragraph" unicode="&#xb6;" horiz-adv-x="1229" 
d="M965 1436v-1620h-76v1544h-248v-1544h-82v827q-69 2 -156 47t-148.5 140.5t-61.5 234.5q0 45 25.5 109t72 123.5t116.5 99t156 39.5h402z" />
    <glyph glyph-name="cedilla" unicode="&#xb8;" horiz-adv-x="457" 
d="M84 -147l117 155h67l-100 -117l8 -4q22 14 68 21q65 -3 112 -42.5t47 -96.5q0 -83 -65 -119.5t-154 -36.5q-98 0 -176 35l25 53q70 -37 147 -37q56 0 100 26t44 74q0 32 -28 61t-81 32q-51 -8 -98 -29z" />
    <glyph glyph-name="onesuperior" unicode="&#xb9;" horiz-adv-x="680" 
d="M172 1380l12 64h197v-860h-74v796h-135z" />
    <glyph glyph-name="ordmasculine" unicode="&#xba;" horiz-adv-x="684" 
d="M336 1460q69 0 128 -23.5t104 -65.5t69.5 -94t26.5 -110q0 -73 -36 -144.5t-107 -118.5t-169 -48q-102 0 -178 43.5t-115 113t-39 142.5q0 77 40 146t111.5 112t164.5 47zM596 1159q-1 73 -37 128.5t-94 83.5t-121 30q-61 0 -120.5 -30.5t-97 -86.5t-38.5 -125
q0 -109 80 -178.5t180 -69.5q63 2 120 32.5t92.5 86.5t35.5 129z" />
    <glyph glyph-name="guillemotright" unicode="&#xbb;" horiz-adv-x="797" 
d="M457 805l248 -318l-248 -319h-97l248 319l-248 318h97zM205 805l248 -318l-248 -319h-96l243 319l-243 318h96z" />
    <glyph glyph-name="onequarter" unicode="&#xbc;" horiz-adv-x="1708" 
d="M408 -25h-76l948 1485h80zM131 1384l12 64h205v-868h-67v804h-150zM1460 289v520l64 63l4 -2l4 -2v-579h139v-70h-139v-219h-68v219h-389q-67 0 -76 49q5 39 62 127l315 482h76l-365 -553q-6 -8 -12 -25q7 -10 25 -10h360z" />
    <glyph glyph-name="onehalf" unicode="&#xbd;" horiz-adv-x="1708" 
d="M360 -25h-75l944 1485h80zM1671 63v-63h-543q-57 0 -57 63q0 41 52.5 82.5t191 138t209.5 170t71 146.5q0 209 -227 209t-227 -205q0 -72 58.5 -122t168.5 -50l4 -4q-47 -59 -72 -59q-70 0 -152.5 66t-82.5 169q0 127 78.5 200t224.5 73q82 0 150 -27.5t108.5 -90
t40.5 -159.5q0 -81 -72.5 -164t-143.5 -134t-190.5 -130t-119.5 -96q0 -13 14 -13h516zM172 1380l12 64h197v-860h-74v796h-135z" />
    <glyph glyph-name="threequarters" unicode="&#xbe;" horiz-adv-x="1708" 
d="M1460 293v518l64 66q2 -1 4 -2.5t4 -2.5v-579h139v-70h-139v-219h-68v219h-389q-67 0 -76 49q5 39 62 127l315 482h76l-365 -553q-5 -5 -12 -25q7 -10 25 -10h360zM475 -25h-76l949 1485h79zM55 1380v64h424q36 0 55 -13.5t19 -37.5q0 -31 -33 -58l-284 -248h100
q88 0 153.5 -31.5t98.5 -86t33 -125.5q0 -127 -80.5 -193.5t-225.5 -66.5h-268v63h301q89 0 143 50t54 130q0 59 -24.5 104t-75.5 69t-126 24h-167v68l297 260q6 3 13 10t7 10q0 8 -8 8h-406z" />
    <glyph glyph-name="questiondown" unicode="&#xbf;" horiz-adv-x="907" 
d="M487 1004q37 0 58.5 -23t21.5 -53q0 -31 -22 -55.5t-58 -24.5q-68 5 -75 76q0 31 18.5 54t56.5 26zM528 731v-442q-211 0 -305 -98t-98 -238q2 -13 3.5 -38t2.5 -44q17 -86 68 -145t119.5 -86t146.5 -27q77 0 150 38t120.5 114t48.5 176h80q-8 -213 -129.5 -309.5
t-269.5 -100.5q-164 0 -281.5 97t-136.5 259q0 14 -0.5 22.5t-1.5 18.5q0 191 102.5 305t305.5 127v371h75z" />
    <glyph glyph-name="Agrave" unicode="&#xc0;" horiz-adv-x="1251" 
d="M395 1804h105l243 -284h-75zM215 0h-84v977q2 127 53 237t162.5 178t278.5 68q157 0 268.5 -65t169 -176t57.5 -246v-973h-88v700h-733v76h733v232q-5 110 -52.5 194t-138 131t-216.5 47q-116 0 -209 -43t-147 -129.5t-54 -208.5v-999z" />
    <glyph glyph-name="Aacute" unicode="&#xc1;" horiz-adv-x="1251" 
d="M860 1800l-272 -280h-76l244 280h104zM215 0h-84v977q2 127 53 237t162.5 178t278.5 68q157 0 268.5 -65t169 -176t57.5 -246v-973h-88v700h-733v76h733v232q-5 110 -52.5 194t-138 131t-216.5 47q-116 0 -209 -43t-147 -129.5t-54 -208.5v-999z" />
    <glyph glyph-name="Acircumflex" unicode="&#xc2;" horiz-adv-x="1251" 
d="M625 1751l-193 -231h-80l219 284h109l223 -284h-84zM215 0h-84v977q2 127 53 237t162.5 178t278.5 68q157 0 268.5 -65t169 -176t57.5 -246v-973h-88v700h-733v76h733v232q-5 110 -52.5 194t-138 131t-216.5 47q-116 0 -209 -43t-147 -129.5t-54 -208.5v-999z" />
    <glyph glyph-name="Atilde" unicode="&#xc3;" horiz-adv-x="1251" 
d="M387 1552h-59q4 53 47.5 115t116.5 62q36 0 68 -13.5t77 -40.5t72.5 -40t58.5 -15q85 7 96 113h64q-33 -175 -156 -181q-79 7 -176 68q-61 41 -113 41q-40 0 -64.5 -32t-31.5 -77zM215 0h-84v977q2 127 53 237t162.5 178t278.5 68q157 0 268.5 -65t169 -176t57.5 -246
v-973h-88v700h-733v76h733v232q-5 110 -52.5 194t-138 131t-216.5 47q-116 0 -209 -43t-147 -129.5t-54 -208.5v-999z" />
    <glyph glyph-name="Adieresis" unicode="&#xc4;" horiz-adv-x="1251" 
d="M465 1708q30 0 51 -18.5t21 -44.5q0 -31 -18 -53.5t-54 -22.5q-27 0 -48.5 20.5t-21.5 50.5q0 24 19.5 46t50.5 22zM793 1708q28 0 47.5 -19.5t19.5 -43.5q0 -29 -19 -52.5t-48 -23.5q-31 0 -51.5 21.5t-20.5 49.5q3 27 22 47.5t50 20.5zM215 0h-84v977q2 127 53 237
t162.5 178t278.5 68q157 0 268.5 -65t169 -176t57.5 -246v-973h-88v700h-733v76h733v232q-5 110 -52.5 194t-138 131t-216.5 47q-116 0 -209 -43t-147 -129.5t-54 -208.5v-999z" />
    <glyph glyph-name="Aring" unicode="&#xc5;" horiz-adv-x="1251" 
d="M629 1917q80 0 135.5 -54.5t58.5 -125.5q0 -60 -23.5 -109.5t-68 -78.5t-102.5 -29q-57 0 -102 26.5t-71 71t-28 94.5q0 78 55.5 141.5t145.5 63.5zM487 1712q5 -59 43 -96.5t99 -38.5q52 0 95.5 41.5t43.5 110.5q-3 51 -41.5 89.5t-97.5 41.5q-52 0 -97 -37.5
t-45 -110.5zM215 0h-84v977q2 127 53 237t162.5 178t278.5 68q157 0 268.5 -65t169 -176t57.5 -246v-973h-88v700h-733v76h733v232q-5 110 -52.5 194t-138 131t-216.5 47q-116 0 -209 -43t-147 -129.5t-54 -208.5v-999z" />
    <glyph glyph-name="AE" unicode="&#xc6;" horiz-adv-x="1931" 
d="M109 0v965q11 254 140 369t314 126q140 0 237.5 -42t154.5 -105.5t84 -130t32 -121.5q83 172 253.5 275.5t424.5 103.5q72 0 111 -4v-72q-27 4 -101 4q-108 0 -217.5 -29.5t-209.5 -98t-168 -184.5t-85 -280h781v-71h-781q8 -186 81.5 -313t180.5 -196t219 -97.5
t216 -30.5q72 8 84 8v-72q-74 -4 -105 -4q-175 0 -305 47t-215 124.5t-152 188.5v-360l-92 4v701h-715v71h715v207q-4 124 -58 215.5t-147 138.5t-215 47q-101 -1 -187 -54.5t-136.5 -150t-50.5 -214.5v-965h-88z" />
    <glyph glyph-name="Ccedilla" unicode="&#xc7;" horiz-adv-x="1024" 
d="M977 1364h-234q-97 0 -226.5 -64t-230 -204t-110.5 -353q0 -170 54 -295t143 -205.5t188 -120t199 -46.5h217v-72q-39 0 -100 -2t-101 -2l-96 -109l4 -4q55 17 80 21q71 -3 113.5 -49t42.5 -103q-3 -68 -66.5 -105.5t-153.5 -37.5q-94 0 -180 39l25 49q64 -37 147 -37
q63 0 102 23t42 65q0 45 -30.5 71.5t-84.5 29.5q-71 -12 -92 -25l-33 29l113 147q-136 19 -276 90.5t-242.5 232t-102.5 416.5q9 161 71.5 291t159.5 219t206 136t206 47h246v-72z" />
    <glyph glyph-name="Egrave" unicode="&#xc8;" horiz-adv-x="1024" 
d="M444 1804h105l244 -284h-76zM928 1436v-72h-113q-160 0 -283.5 -50t-209 -136t-130.5 -190.5t-53 -211.5h789v-71h-789q0 -147 55 -264t149 -197.5t210 -122.5t235 -45h140v-76h-160q-113 0 -236 40t-232.5 129.5t-177 237.5t-67.5 353q0 100 40.5 215.5t129.5 220.5
t238.5 172.5t359.5 67.5h105z" />
    <glyph glyph-name="Eacute" unicode="&#xc9;" horiz-adv-x="1024" 
d="M907 1800l-270 -280h-78l246 280h102zM928 1436v-72h-113q-160 0 -283.5 -50t-209 -136t-130.5 -190.5t-53 -211.5h789v-71h-789q0 -147 55 -264t149 -197.5t210 -122.5t235 -45h140v-76h-160q-113 0 -236 40t-232.5 129.5t-177 237.5t-67.5 353q0 100 40.5 215.5
t129.5 220.5t238.5 172.5t359.5 67.5h105z" />
    <glyph glyph-name="Ecircumflex" unicode="&#xca;" horiz-adv-x="1024" 
d="M672 1751l-193 -231h-80l222 284h106l225 -284h-84zM928 1436v-72h-113q-160 0 -283.5 -50t-209 -136t-130.5 -190.5t-53 -211.5h789v-71h-789q0 -147 55 -264t149 -197.5t210 -122.5t235 -45h140v-76h-160q-113 0 -236 40t-232.5 129.5t-177 237.5t-67.5 353
q0 100 40.5 215.5t129.5 220.5t238.5 172.5t359.5 67.5h105z" />
    <glyph glyph-name="Edieresis" unicode="&#xcb;" horiz-adv-x="1024" 
d="M512 1708q32 0 52 -18.5t20 -44.5q0 -31 -18 -53.5t-54 -22.5q-26 0 -47 21t-21 50q0 24 19.5 46t48.5 22zM840 1708q29 0 48 -19t19 -44q0 -31 -18 -53.5t-49 -22.5q-30 0 -51 21t-21 50q3 27 23 47.5t49 20.5zM928 1436v-72h-113q-160 0 -283.5 -50t-209 -136
t-130.5 -190.5t-53 -211.5h789v-71h-789q0 -147 55 -264t149 -197.5t210 -122.5t235 -45h140v-76h-160q-113 0 -236 40t-232.5 129.5t-177 237.5t-67.5 353q0 100 40.5 215.5t129.5 220.5t238.5 172.5t359.5 67.5h105z" />
    <glyph glyph-name="Igrave" unicode="&#xcc;" horiz-adv-x="457" 
d="M-4 1804h104l244 -284h-76zM272 1436v-1436h-88v1436h88z" />
    <glyph glyph-name="Iacute" unicode="&#xcd;" horiz-adv-x="457" 
d="M461 1800l-273 -280h-75l243 280h105zM272 1436v-1436h-88v1436h88z" />
    <glyph glyph-name="Icircumflex" unicode="&#xce;" horiz-adv-x="457" 
d="M223 1751l-190 -231h-80l219 284h109l223 -284h-84zM272 1436v-1436h-88v1436h88z" />
    <glyph glyph-name="Idieresis" unicode="&#xcf;" horiz-adv-x="457" 
d="M63 1708q32 0 52 -18.5t20 -44.5q0 -32 -17.5 -54t-54.5 -22q-26 0 -46.5 20.5t-20.5 50.5q0 24 19 46t48 22zM391 1708q30 0 50 -19t20 -44q0 -29 -19.5 -52.5t-50.5 -23.5q-30 0 -51 21t-21 50q5 28 23.5 48t48.5 20zM272 1436v-1436h-88v1436h88z" />
    <glyph glyph-name="Eth" unicode="&#xd0;" horiz-adv-x="1591" 
d="M1356 1225l-60 -62q-86 107 -220.5 164t-278.5 57q-134 0 -252 -53.5t-204.5 -147t-135 -215t-49.5 -251.5q6 -166 75 -314q86 -167 237 -258t325 -94q154 2 294.5 75.5t231 217.5t100.5 344h-618v76h706q1 -11 1.5 -20t0.5 -23q0 -140 -47.5 -273.5t-139 -240.5
t-225 -169.5t-296.5 -62.5q-150 0 -284 58t-234.5 161.5t-157 238.5t-57.5 284q6 113 36 227q75 231 264 372t441 144q74 0 148.5 -15.5t149.5 -46t141.5 -76t107.5 -97.5zM1087 1835q-6 -73 -46.5 -129.5t-102 -85.5t-123.5 -29q-74 0 -135.5 31.5t-97 86.5t-37.5 126h59
q13 -80 74.5 -128t136.5 -48q79 0 138.5 44.5t70.5 131.5h63z" />
    <glyph glyph-name="Ntilde" unicode="&#xd1;" horiz-adv-x="1251" 
d="M416 1552h-60q2 25 21.5 69.5t55.5 76t87 31.5q37 0 70 -13.5t73.5 -39t71.5 -40t62 -16.5q85 7 96 113h63q-31 -175 -155 -181q-80 7 -176 68q-64 41 -113 41q-40 0 -64.5 -32t-31.5 -77zM227 0h-88v1343q0 99 92 117q99 0 138 -76l592 -1267q6 -18 20.5 -36.5
t26.5 -21.5q20 5 20 58v1343h88v-1372q0 -65 -24 -86t-72 -27q-97 0 -135 93l-586 1255q-7 24 -23.5 40.5t-31.5 16.5q-17 0 -17 -37v-1343z" />
    <glyph glyph-name="Ograve" unicode="&#xd2;" horiz-adv-x="1591" 
d="M563 1804h105l243 -284h-75zM797 1460q159 0 294.5 -62.5t233.5 -168.5t150.5 -239t52.5 -273q-2 -185 -92.5 -357t-257.5 -278.5t-381 -106.5q-170 0 -307 66t-231.5 175.5t-142.5 240t-48 256.5q0 125 47.5 258.5t140 244t231 177.5t310.5 67zM797 51q156 1 277 62
t201 159.5t119.5 215t41.5 229.5q0 116 -41.5 231.5t-122.5 212.5t-202 156.5t-273 62.5q-194 0 -340.5 -99t-223.5 -253.5t-77 -314.5q2 -164 80 -317.5t223 -249t338 -95.5z" />
    <glyph glyph-name="Oacute" unicode="&#xd3;" horiz-adv-x="1591" 
d="M1028 1800l-272 -280h-76l244 280h104zM797 1460q159 0 294.5 -62.5t233.5 -168.5t150.5 -239t52.5 -273q-2 -185 -92.5 -357t-257.5 -278.5t-381 -106.5q-170 0 -307 66t-231.5 175.5t-142.5 240t-48 256.5q0 125 47.5 258.5t140 244t231 177.5t310.5 67zM797 51
q156 1 277 62t201 159.5t119.5 215t41.5 229.5q0 116 -41.5 231.5t-122.5 212.5t-202 156.5t-273 62.5q-194 0 -340.5 -99t-223.5 -253.5t-77 -314.5q2 -164 80 -317.5t223 -249t338 -95.5z" />
    <glyph glyph-name="Ocircumflex" unicode="&#xd4;" horiz-adv-x="1591" 
d="M793 1751l-193 -231h-80l219 284h109l223 -284h-84zM797 1460q159 0 294.5 -62.5t233.5 -168.5t150.5 -239t52.5 -273q-2 -185 -92.5 -357t-257.5 -278.5t-381 -106.5q-170 0 -307 66t-231.5 175.5t-142.5 240t-48 256.5q0 125 47.5 258.5t140 244t231 177.5t310.5 67z
M797 51q156 1 277 62t201 159.5t119.5 215t41.5 229.5q0 116 -41.5 231.5t-122.5 212.5t-202 156.5t-273 62.5q-194 0 -340.5 -99t-223.5 -253.5t-77 -314.5q2 -164 80 -317.5t223 -249t338 -95.5z" />
    <glyph glyph-name="Otilde" unicode="&#xd5;" horiz-adv-x="1591" 
d="M555 1552h-59q4 53 46.5 115t116.5 62q37 0 70 -13.5t73.5 -39t71.5 -40t62 -16.5q85 7 96 113h64q-33 -175 -156 -181q-81 7 -176 68q-61 41 -113 41q-40 0 -64.5 -32t-31.5 -77zM797 1460q159 0 294.5 -62.5t233.5 -168.5t150.5 -239t52.5 -273q-2 -185 -92.5 -357
t-257.5 -278.5t-381 -106.5q-170 0 -307 66t-231.5 175.5t-142.5 240t-48 256.5q0 125 47.5 258.5t140 244t231 177.5t310.5 67zM797 51q156 1 277 62t201 159.5t119.5 215t41.5 229.5q0 116 -41.5 231.5t-122.5 212.5t-202 156.5t-273 62.5q-194 0 -340.5 -99
t-223.5 -253.5t-77 -314.5q2 -164 80 -317.5t223 -249t338 -95.5z" />
    <glyph glyph-name="Odieresis" unicode="&#xd6;" horiz-adv-x="1591" 
d="M633 1708q30 0 51 -18.5t21 -44.5q0 -31 -18 -53.5t-54 -22.5q-27 0 -48.5 20.5t-21.5 50.5q0 24 19.5 46t50.5 22zM961 1708q28 0 47.5 -19.5t19.5 -43.5q0 -29 -19 -52.5t-48 -23.5q-33 0 -52.5 21.5t-19.5 49.5q3 26 21.5 47t50.5 21zM797 1460q159 0 294.5 -62.5
t233.5 -168.5t150.5 -239t52.5 -273q-2 -185 -92.5 -357t-257.5 -278.5t-381 -106.5q-170 0 -307 66t-231.5 175.5t-142.5 240t-48 256.5q0 125 47.5 258.5t140 244t231 177.5t310.5 67zM797 51q156 1 277 62t201 159.5t119.5 215t41.5 229.5q0 116 -41.5 231.5
t-122.5 212.5t-202 156.5t-273 62.5q-194 0 -340.5 -99t-223.5 -253.5t-77 -314.5q2 -164 80 -317.5t223 -249t338 -95.5z" />
    <glyph glyph-name="Oslash" unicode="&#xd8;" horiz-adv-x="1591" 
d="M1599 1460l-251 -252q64 -71 104 -155t58 -169t18 -167q0 -186 -96 -356t-259 -276t-350 -110q-94 0 -175.5 14.5t-169 59t-179.5 127.5l-195 -201h-108l252 256q-101 133 -139.5 246t-38.5 256q1 14 2 26v29q6 140 67 264t164 214.5t232.5 140t269.5 49.5
q146 0 259 -46.5t228 -145.5l203 196h104zM307 293l926 911q-199 180 -432 180q-122 0 -233.5 -45.5t-199.5 -128.5t-143 -194t-65 -232q0 -45 -4 -71q7 -240 151 -420zM1288 1149l-923 -913q96 -101 211 -141t239 -40q128 0 242.5 56t200.5 152.5t132 215t46 242.5
q0 113 -36 224.5t-112 203.5z" />
    <glyph glyph-name="Ugrave" unicode="&#xd9;" horiz-adv-x="1251" 
d="M395 1800h105l243 -284h-75zM215 1436v-971q0 -175 75.5 -266.5t168 -118.5t174.5 -29q113 0 204 49.5t143 143t52 221.5v971h88v-932q0 -130 -42.5 -246.5t-148.5 -195.5t-286 -87q-239 0 -375.5 131.5t-136.5 397.5v932h84z" />
    <glyph glyph-name="Uacute" unicode="&#xda;" horiz-adv-x="1251" 
d="M860 1800l-272 -280h-76l244 280h104zM215 1436v-971q0 -175 75.5 -266.5t168 -118.5t174.5 -29q113 0 204 49.5t143 143t52 221.5v971h88v-932q0 -130 -42.5 -246.5t-148.5 -195.5t-286 -87q-239 0 -375.5 131.5t-136.5 397.5v932h84z" />
    <glyph glyph-name="Ucircumflex" unicode="&#xdb;" horiz-adv-x="1251" 
d="M625 1751l-193 -231h-80l219 284h109l223 -284h-84zM215 1436v-971q0 -175 75.5 -266.5t168 -118.5t174.5 -29q113 0 204 49.5t143 143t52 221.5v971h88v-932q0 -130 -42.5 -246.5t-148.5 -195.5t-286 -87q-239 0 -375.5 131.5t-136.5 397.5v932h84z" />
    <glyph glyph-name="Udieresis" unicode="&#xdc;" horiz-adv-x="1251" 
d="M465 1708q30 0 51 -18.5t21 -44.5q0 -31 -18 -53.5t-54 -22.5q-27 0 -48.5 20.5t-21.5 50.5q0 24 19.5 46t50.5 22zM793 1708q28 0 47.5 -19.5t19.5 -43.5q0 -29 -19 -52.5t-48 -23.5q-31 0 -51.5 21.5t-20.5 49.5q3 27 22 47.5t50 20.5zM215 1436v-971
q0 -175 75.5 -266.5t168 -118.5t174.5 -29q113 0 204 49.5t143 143t52 221.5v971h88v-932q0 -130 -42.5 -246.5t-148.5 -195.5t-286 -87q-239 0 -375.5 131.5t-136.5 397.5v932h84z" />
    <glyph glyph-name="Yacute" unicode="&#xdd;" horiz-adv-x="457" 
d="M272 1436v-1436h-88v1436h88zM231 1704q32 0 52 -18.5t20 -45.5q0 -32 -17.5 -53.5t-54.5 -21.5q-26 0 -46.5 20.5t-20.5 50.5q0 24 19 46t48 22z" />
    <glyph glyph-name="Thorn" unicode="&#xde;" 
d="M1051 358l-2 -47q-8 -69 -37 -126.5t-85 -98.5t-145.5 -63.5t-216.5 -22.5h-49h-53h-72h-303v80h428h29q11 -1 24 -2q141 0 227 36t123 90.5t42 114.5q0 115 -51 188t-129 111t-224 81t-201 61q-94 36 -170.5 104.5t-93.5 184.5q0 34 -4 59q4 138 93.5 234t324.5 96h31
q12 -1 26 -2h406v-76h-406q-234 0 -308.5 -70t-78.5 -186q4 -8 4 -25q3 -75 48 -126.5t111.5 -83.5t151.5 -58t173 -51q106 -33 177.5 -68.5t118.5 -82t69 -107t22 -144.5zM403 16l60 -16l-86 -109l4 -4q23 14 76 21q67 -3 111 -47t44 -97q-6 -78 -67.5 -113.5t-153.5 -35.5
q-101 0 -180 37l25 49q78 -37 147 -37q67 0 106 26t39 70q0 41 -30.5 65.5t-81.5 27.5q-48 -7 -97 -25l-30 29l102 143z" />
    <glyph glyph-name="germandbls" unicode="&#xdf;" 
d="M12 889h64h59v231q0 70 40.5 146t121 131.5t190.5 62.5q73 0 138 -15t115.5 -47.5t79 -81.5t28.5 -116q0 -30 -17 -100q-18 -67 -67.5 -110.5t-119.5 -75.5t-77 -37q-4 -4 -7 -6.5t-5 -6.5q8 -8 12 -8q54 -22 127.5 -50.5t155 -80.5t140.5 -138t59 -206
q0 -106 -45 -191.5t-151.5 -137.5t-277.5 -52h-272v80h297q120 0 201.5 39t122.5 108t41 160q-7 70 -30 128.5t-77.5 108.5t-152.5 89q-137 56 -186.5 83t-49.5 72q5 35 33.5 55.5t100 59.5t111 77t50.5 95q4 24 4 37q0 94 -73 143t-187 49q-116 0 -202.5 -86.5
t-86.5 -201.5v-1096h-84v805h-123v84z" />
    <glyph glyph-name="agrave" unicode="&#xe0;" 
d="M336 1384h104l244 -284h-76zM848 197v-97q-68 -53 -144 -84.5t-159 -31.5q-142 0 -251 70t-166.5 189t-57.5 257q0 30 2 45q11 115 59.5 202.5t117.5 140.5t141 78t138 25q129 0 224 -47.5t153 -123t84.5 -161.5t26.5 -163v-496h-80v500q-6 141 -68 235.5t-152.5 139.5
t-183.5 45q-94 -4 -167 -48t-118.5 -106.5t-68 -125t-22.5 -99.5q-2 -17 -2 -45q0 -184 101 -301.5t253 -139.5q212 0 340 142z" />
    <glyph glyph-name="aacute" unicode="&#xe1;" 
d="M801 1380l-273 -280h-75l243 280h105zM848 197v-97q-68 -53 -144 -84.5t-159 -31.5q-142 0 -251 70t-166.5 189t-57.5 257q0 30 2 45q11 115 59.5 202.5t117.5 140.5t141 78t138 25q129 0 224 -47.5t153 -123t84.5 -161.5t26.5 -163v-496h-80v500q-6 141 -68 235.5
t-152.5 139.5t-183.5 45q-94 -4 -167 -48t-118.5 -106.5t-68 -125t-22.5 -99.5q-2 -17 -2 -45q0 -184 101 -301.5t253 -139.5q212 0 340 142z" />
    <glyph glyph-name="acircumflex" unicode="&#xe2;" 
d="M563 1327l-190 -231h-80l219 284h109l223 -284h-84zM848 197v-97q-68 -53 -144 -84.5t-159 -31.5q-142 0 -251 70t-166.5 189t-57.5 257q0 30 2 45q11 115 59.5 202.5t117.5 140.5t141 78t138 25q129 0 224 -47.5t153 -123t84.5 -161.5t26.5 -163v-496h-80v500
q-6 141 -68 235.5t-152.5 139.5t-183.5 45q-94 -4 -167 -48t-118.5 -106.5t-68 -125t-22.5 -99.5q-2 -17 -2 -45q0 -184 101 -301.5t253 -139.5q212 0 340 142z" />
    <glyph glyph-name="atilde" unicode="&#xe3;" 
d="M328 1128h-60q4 52 47 114.5t117 62.5q37 0 70 -13.5t73.5 -39t71.5 -40t62 -16.5q85 7 96 113h63q-31 -174 -155 -181q-83 8 -176 68q-64 41 -113 41q-40 0 -64.5 -32t-31.5 -77zM848 197v-97q-68 -53 -144 -84.5t-159 -31.5q-142 0 -251 70t-166.5 189t-57.5 257
q0 30 2 45q11 115 59.5 202.5t117.5 140.5t141 78t138 25q129 0 224 -47.5t153 -123t84.5 -161.5t26.5 -163v-496h-80v500q-6 141 -68 235.5t-152.5 139.5t-183.5 45q-94 -4 -167 -48t-118.5 -106.5t-68 -125t-22.5 -99.5q-2 -17 -2 -45q0 -184 101 -301.5t253 -139.5
q212 0 340 142z" />
    <glyph glyph-name="adieresis" unicode="&#xe4;" 
d="M403 1284q32 0 52 -18.5t20 -44.5q0 -32 -17.5 -54t-54.5 -22q-27 0 -47 21t-20 51q0 23 19 45t48 22zM731 1284q30 0 50 -19t20 -44q0 -29 -19.5 -52.5t-50.5 -23.5q-30 0 -51 22t-21 50q5 27 23.5 47t48.5 20zM848 197v-97q-68 -53 -144 -84.5t-159 -31.5
q-142 0 -251 70t-166.5 189t-57.5 257q0 30 2 45q11 115 59.5 202.5t117.5 140.5t141 78t138 25q129 0 224 -47.5t153 -123t84.5 -161.5t26.5 -163v-496h-80v500q-6 141 -68 235.5t-152.5 139.5t-183.5 45q-94 -4 -167 -48t-118.5 -106.5t-68 -125t-22.5 -99.5
q-2 -17 -2 -45q0 -184 101 -301.5t253 -139.5q212 0 340 142z" />
    <glyph glyph-name="aring" unicode="&#xe5;" 
d="M567 1493q82 0 138 -54t59 -126q0 -93 -54 -155t-143 -62q-83 0 -139 57t-59 135q0 77 55 141t143 64zM428 1288q3 -57 40.5 -95.5t98.5 -39.5q55 0 98.5 41.5t43.5 110.5q-3 52 -43 90t-99 41q-50 0 -94.5 -38t-44.5 -110zM848 197v-97q-68 -53 -144 -84.5t-159 -31.5
q-142 0 -251 70t-166.5 189t-57.5 257q0 30 2 45q11 115 59.5 202.5t117.5 140.5t141 78t138 25q129 0 224 -47.5t153 -123t84.5 -161.5t26.5 -163v-496h-80v500q-6 141 -68 235.5t-152.5 139.5t-183.5 45q-94 -4 -167 -48t-118.5 -106.5t-68 -125t-22.5 -99.5
q-2 -17 -2 -45q0 -184 101 -301.5t253 -139.5q212 0 340 142z" />
    <glyph glyph-name="ae" unicode="&#xe6;" horiz-adv-x="1931" 
d="M815 725q-13 37 -42.5 72t-72 61.5t-97.5 41.5t-120 15q-150 0 -307 -79l-45 63q61 38 158.5 65t193.5 27t182.5 -28.5t154.5 -93t104 -169.5q60 124 161.5 205t286.5 86q102 0 190 -38.5t151.5 -100t94.5 -127.5l-751 -322l-29 68l651 285q-111 156 -311 164
q-124 -3 -218 -64.5t-145 -160t-53 -199.5q2 -12 3.5 -28.5t5.5 -39.5q17 -92 61 -172t133.5 -137.5t224.5 -63.5q88 1 159.5 31.5t120.5 79.5t79 108t41 113l80 -10q-26 -112 -80 -189.5t-124 -123t-142 -65t-138 -19.5q-120 5 -199.5 34.5t-139.5 91.5t-117 166
q-35 -102 -107.5 -168.5t-166.5 -99.5t-193 -33q-91 0 -178.5 33.5t-144 99t-62.5 156.5q2 86 77 171t241 160.5t429 133.5zM215 135q91 -82 229 -88q118 1 217 57.5t155 153.5t56 217q0 95 -28 172q-79 -8 -197.5 -41.5t-230.5 -84.5t-187.5 -119t-76.5 -142q6 -59 63 -125
z" />
    <glyph glyph-name="ccedilla" unicode="&#xe7;" horiz-adv-x="797" 
d="M721 911h-158q-126 -4 -217 -61.5t-138.5 -155.5t-47.5 -211q5 -109 51.5 -197t135 -142t208.5 -60h166v-80h-166l-90 -113l4 -4q25 14 76 21q67 -3 111 -47t44 -97q-6 -78 -67.5 -113.5t-153.5 -35.5q-101 0 -180 37l25 49q78 -37 147 -37q67 0 106 26t39 70
q0 41 -30.5 65.5t-81.5 27.5q-49 -7 -96 -25l-31 29l115 151q-382 70 -412 467q0 100 31.5 193.5t92 165t149.5 113t202 44.5h166v-80z" />
    <glyph glyph-name="egrave" unicode="&#xe8;" 
d="M336 1380h104l244 -284h-76zM897 772q-52 69 -136.5 106t-180.5 37q-90 0 -176.5 -38t-149 -118t-86.5 -196q-2 -12 -4 -38.5t-4 -41.5q2 -86 35.5 -170t104.5 -150.5t183 -99.5q66 -8 92 -12q93 1 169.5 32.5t135.5 89.5t92.5 134.5t39.5 161.5h80q-6 -148 -77.5 -259.5
t-183.5 -168.5t-239 -57q-106 0 -199 38t-163 106.5t-110.5 161.5t-43.5 197q5 137 71.5 252.5t179 183.5t248.5 68q94 0 183 -31.5t155.5 -85.5t102.5 -118l-697 -471l-47 63z" />
    <glyph glyph-name="eacute" unicode="&#xe9;" 
d="M801 1376l-273 -280h-75l243 280h105zM897 772q-52 69 -136.5 106t-180.5 37q-90 0 -176.5 -38t-149 -118t-86.5 -196q-2 -12 -4 -38.5t-4 -41.5q2 -86 35.5 -170t104.5 -150.5t183 -99.5q66 -8 92 -12q93 1 169.5 32.5t135.5 89.5t92.5 134.5t39.5 161.5h80
q-6 -148 -77.5 -259.5t-183.5 -168.5t-239 -57q-106 0 -199 38t-163 106.5t-110.5 161.5t-43.5 197q5 137 71.5 252.5t179 183.5t248.5 68q94 0 183 -31.5t155.5 -85.5t102.5 -118l-697 -471l-47 63z" />
    <glyph glyph-name="ecircumflex" unicode="&#xea;" 
d="M563 1327l-190 -231h-80l219 284h109l223 -284h-84zM897 772q-52 69 -136.5 106t-180.5 37q-90 0 -176.5 -38t-149 -118t-86.5 -196q-2 -12 -4 -38.5t-4 -41.5q2 -86 35.5 -170t104.5 -150.5t183 -99.5q66 -8 92 -12q93 1 169.5 32.5t135.5 89.5t92.5 134.5t39.5 161.5
h80q-6 -148 -77.5 -259.5t-183.5 -168.5t-239 -57q-106 0 -199 38t-163 106.5t-110.5 161.5t-43.5 197q5 137 71.5 252.5t179 183.5t248.5 68q94 0 183 -31.5t155.5 -85.5t102.5 -118l-697 -471l-47 63z" />
    <glyph glyph-name="edieresis" unicode="&#xeb;" 
d="M403 1284q32 0 52 -18.5t20 -44.5q0 -32 -17.5 -54t-54.5 -22q-27 0 -47 21t-20 51q0 23 19 45t48 22zM731 1284q30 0 50 -19t20 -44q0 -29 -19.5 -52.5t-50.5 -23.5q-30 0 -51 22t-21 50q5 27 23.5 47t48.5 20zM897 772q-52 69 -136.5 106t-180.5 37q-90 0 -176.5 -38
t-149 -118t-86.5 -196q-2 -12 -4 -38.5t-4 -41.5q2 -86 35.5 -170t104.5 -150.5t183 -99.5q66 -8 92 -12q93 1 169.5 32.5t135.5 89.5t92.5 134.5t39.5 161.5h80q-6 -148 -77.5 -259.5t-183.5 -168.5t-239 -57q-106 0 -199 38t-163 106.5t-110.5 161.5t-43.5 197
q5 137 71.5 252.5t179 183.5t248.5 68q94 0 183 -31.5t155.5 -85.5t102.5 -118l-697 -471l-47 63z" />
    <glyph glyph-name="igrave" unicode="&#xec;" horiz-adv-x="457" 
d="M-8 1384h104l244 -284h-76zM268 973v-973h-75v973h75z" />
    <glyph glyph-name="iacute" unicode="&#xed;" horiz-adv-x="457" 
d="M457 1380l-273 -280h-75l243 280h105zM268 973v-973h-75v973h75z" />
    <glyph glyph-name="icircumflex" unicode="&#xee;" horiz-adv-x="457" 
d="M219 1323l-190 -231h-80l219 284h108l224 -284h-84zM268 973v-973h-75v973h75z" />
    <glyph glyph-name="idieresis" unicode="&#xef;" horiz-adv-x="457" 
d="M59 1280q32 0 52 -18.5t20 -44.5q0 -32 -17.5 -54t-54.5 -22q-26 0 -46.5 20.5t-20.5 50.5q0 24 19 46t48 22zM387 1280q30 0 50 -19t20 -44q0 -29 -19.5 -52.5t-50.5 -23.5q-30 0 -51 21t-21 50q3 27 23 47.5t49 20.5zM268 973v-973h-75v973h75z" />
    <glyph glyph-name="eth" unicode="&#xf0;" 
d="M848 104q-131 -120 -311 -120q-189 0 -327 147t-138 385q16 160 84.5 268.5t171 161.5t213.5 53q94 0 179 -34t152.5 -100.5t105.5 -162t38 -219.5v-475q0 -122 -39.5 -214t-108 -148.5t-157 -83.5t-191.5 -27q-147 0 -272 49l24 72q117 -47 256 -47q179 0 295.5 101.5
t116.5 330.5v446q0 131 -56.5 227t-149 146.5t-193.5 50.5q-97 0 -182.5 -46t-141 -138.5t-65.5 -230.5q0 -113 52 -214.5t141 -163.5t192 -63q82 3 160 40.5t151 113.5v-105zM821 1384q-6 -74 -46.5 -129.5t-102 -84.5t-123.5 -29q-73 0 -134.5 30.5t-97.5 86t-38 126.5h59
q11 -79 73.5 -127.5t137.5 -48.5q77 0 137.5 45.5t71.5 130.5h63z" />
    <glyph glyph-name="ntilde" unicode="&#xf1;" horiz-adv-x="1024" 
d="M276 1124h-61q2 26 22 70t56 75t88 31q35 0 66.5 -13t76.5 -40t72.5 -40t58.5 -15q85 7 97 113h63q-28 -175 -156 -181q-76 6 -176 68q-61 41 -110 41q-78 0 -97 -109zM205 0h-80v604q0 74 35 161t119 154.5t221 71.5q109 0 200.5 -46.5t146.5 -136.5t56 -212v-596h-80
v584q0 71 -32 149.5t-102 132.5t-177 54h-4q-82 0 -152 -44t-110.5 -117.5t-40.5 -158.5v-600z" />
    <glyph glyph-name="ograve" unicode="&#xf2;" 
d="M340 1376h104l244 -284h-76zM571 991q108 0 200.5 -42.5t156.5 -113t98.5 -162.5t34.5 -186q0 -83 -30 -171.5t-92 -164.5t-156 -123t-212 -48q-153 0 -264.5 75.5t-170 194t-60.5 237.5q0 110 55.5 227.5t168.5 197t271 79.5zM571 51q130 0 224 69t140 170t46 197
q-2 107 -53.5 206.5t-143.5 161.5t-213 65q-91 0 -166.5 -35.5t-129.5 -95.5t-84.5 -139.5t-30.5 -162.5q0 -103 48 -203t141.5 -166t221.5 -67z" />
    <glyph glyph-name="oacute" unicode="&#xf3;" 
d="M797 1372l-273 -280h-75l243 280h105zM571 991q108 0 200.5 -42.5t156.5 -113t98.5 -162.5t34.5 -186q0 -83 -30 -171.5t-92 -164.5t-156 -123t-212 -48q-153 0 -264.5 75.5t-170 194t-60.5 237.5q0 110 55.5 227.5t168.5 197t271 79.5zM571 51q130 0 224 69t140 170
t46 197q-2 107 -53.5 206.5t-143.5 161.5t-213 65q-91 0 -166.5 -35.5t-129.5 -95.5t-84.5 -139.5t-30.5 -162.5q0 -103 48 -203t141.5 -166t221.5 -67z" />
    <glyph glyph-name="ocircumflex" unicode="&#xf4;" 
d="M563 1323l-190 -231h-80l219 284h109l223 -284h-84zM571 991q108 0 200.5 -42.5t156.5 -113t98.5 -162.5t34.5 -186q0 -83 -30 -171.5t-92 -164.5t-156 -123t-212 -48q-153 0 -264.5 75.5t-170 194t-60.5 237.5q0 110 55.5 227.5t168.5 197t271 79.5zM571 51
q130 0 224 69t140 170t46 197q-2 107 -53.5 206.5t-143.5 161.5t-213 65q-91 0 -166.5 -35.5t-129.5 -95.5t-84.5 -139.5t-30.5 -162.5q0 -103 48 -203t141.5 -166t221.5 -67z" />
    <glyph glyph-name="otilde" unicode="&#xf5;" 
d="M328 1124h-60q4 52 47.5 114t116.5 62q37 0 68.5 -13t73.5 -38.5t73 -40t62 -16.5q85 7 96 113h63q-31 -175 -155 -181q-80 7 -176 68q-64 41 -113 41q-40 0 -64.5 -32t-31.5 -77zM571 991q108 0 200.5 -42.5t156.5 -113t98.5 -162.5t34.5 -186q0 -83 -30 -171.5
t-92 -164.5t-156 -123t-212 -48q-153 0 -264.5 75.5t-170 194t-60.5 237.5q0 110 55.5 227.5t168.5 197t271 79.5zM571 51q130 0 224 69t140 170t46 197q-2 107 -53.5 206.5t-143.5 161.5t-213 65q-91 0 -166.5 -35.5t-129.5 -95.5t-84.5 -139.5t-30.5 -162.5
q0 -103 48 -203t141.5 -166t221.5 -67z" />
    <glyph glyph-name="odieresis" unicode="&#xf6;" 
d="M403 1280q32 0 52 -18.5t20 -44.5q0 -32 -17.5 -54t-54.5 -22q-26 0 -46.5 20.5t-20.5 50.5q0 24 19 46t48 22zM731 1280q30 0 50 -19t20 -44q0 -29 -19.5 -52.5t-50.5 -23.5q-30 0 -51 21t-21 50q5 28 23.5 48t48.5 20zM571 991q108 0 200.5 -42.5t156.5 -113
t98.5 -162.5t34.5 -186q0 -83 -30 -171.5t-92 -164.5t-156 -123t-212 -48q-153 0 -264.5 75.5t-170 194t-60.5 237.5q0 110 55.5 227.5t168.5 197t271 79.5zM571 51q130 0 224 69t140 170t46 197q-2 107 -53.5 206.5t-143.5 161.5t-213 65q-91 0 -166.5 -35.5t-129.5 -95.5
t-84.5 -139.5t-30.5 -162.5q0 -103 48 -203t141.5 -166t221.5 -67z" />
    <glyph glyph-name="oslash" unicode="&#xf8;" 
d="M1137 1016l-197 -201q62 -63 89.5 -146.5t27.5 -176.5q0 -134 -63.5 -252t-176 -187t-250.5 -69q-91 0 -175 34t-144 91l-144 -150h-100l197 201q-122 150 -129 332q3 91 40.5 182t104 163.5t155 115t183.5 42.5q109 0 200 -42t138 -85l143 148h101zM256 215l580 596
q-117 104 -269 104q-86 0 -160 -34.5t-128.5 -97t-85 -142.5t-33.5 -162q6 -147 96 -264zM303 164q115 -106 264 -113q114 4 209.5 63t150 156t54.5 209q0 160 -92 281z" />
    <glyph glyph-name="ugrave" unicode="&#xf9;" horiz-adv-x="1024" 
d="M289 1376h102l246 -284h-78zM205 973v-604q4 -92 50 -164t117.5 -110t147.5 -40q57 2 110 23t93.5 58.5t68 97t31.5 131.5v608h80v-608q-1 -91 -35 -164t-88 -120.5t-123.5 -72t-144.5 -24.5q-99 0 -187 42.5t-142.5 126.5t-57.5 203v617h80z" />
    <glyph glyph-name="uacute" unicode="&#xfa;" horiz-adv-x="1024" 
d="M739 1372l-270 -280h-78l246 280h102zM205 973v-604q4 -92 50 -164t117.5 -110t147.5 -40q57 2 110 23t93.5 58.5t68 97t31.5 131.5v608h80v-608q-1 -91 -35 -164t-88 -120.5t-123.5 -72t-144.5 -24.5q-99 0 -187 42.5t-142.5 126.5t-57.5 203v617h80z" />
    <glyph glyph-name="ucircumflex" unicode="&#xfb;" horiz-adv-x="1024" 
d="M508 1323l-193 -231h-79l221 284h106l225 -284h-83zM205 973v-604q4 -92 50 -164t117.5 -110t147.5 -40q57 2 110 23t93.5 58.5t68 97t31.5 131.5v608h80v-608q-1 -91 -35 -164t-88 -120.5t-123.5 -72t-144.5 -24.5q-99 0 -187 42.5t-142.5 126.5t-57.5 203v617h80z" />
    <glyph glyph-name="udieresis" unicode="&#xfc;" horiz-adv-x="1024" 
d="M348 1280q30 0 51 -18.5t21 -44.5q0 -31 -18 -53.5t-54 -22.5q-27 0 -47 21t-20 50q0 24 18 46t49 22zM676 1280q29 0 48 -19t19 -44q0 -31 -18 -53.5t-49 -22.5q-30 0 -51 21t-21 50q3 27 23 47.5t49 20.5zM205 973v-604q4 -92 50 -164t117.5 -110t147.5 -40
q57 2 110 23t93.5 58.5t68 97t31.5 131.5v608h80v-608q-1 -91 -35 -164t-88 -120.5t-123.5 -72t-144.5 -24.5q-99 0 -187 42.5t-142.5 126.5t-57.5 203v617h80z" />
    <glyph glyph-name="yacute" unicode="&#xfd;" horiz-adv-x="457" 
d="M268 973v-973h-75v973h75z" />
    <glyph glyph-name="thorn" unicode="&#xfe;" horiz-adv-x="907" 
d="M764 899h-432q-85 -1 -126.5 -46.5t-41.5 -113.5q3 -90 78 -125t242 -74t255.5 -93.5t96.5 -178.5q0 -148 -81.5 -208t-201.5 -60h-12h-107h-65h-289v76h457q105 0 158.5 46t56.5 122q0 75 -50.5 119.5t-108 62t-187 48.5t-183.5 54q-147 64 -147 215q0 70 55 150t188 80
h445v-74zM375 8l59 -8l-86 -109l4 -4q25 14 76 21q66 -3 111 -47t45 -97q-5 -77 -67.5 -113t-154.5 -36q-101 0 -180 37l25 49q78 -37 147 -37q68 0 107 26t39 70q0 41 -31.5 65.5t-81.5 27.5q-47 -7 -96 -25l-31 29l109 143z" />
    <glyph glyph-name="ydieresis" unicode="&#xff;" horiz-adv-x="567" 
d="M555 -4v-424h-84v424q-65 6 -123.5 31.5t-106 71.5t-78.5 111t-38 150v623h76v-588q0 -98 46 -173.5t117 -114.5t144 -39q78 0 148.5 38t116.5 110t50 169v598h80v-598q-7 -174 -104.5 -275t-243.5 -114zM348 1296q30 0 51 -18.5t21 -44.5q0 -32 -17.5 -55t-54.5 -23
q-28 0 -47.5 22t-19.5 52q0 23 18 45t49 22zM676 1296q29 0 48 -19t19 -44q0 -32 -17.5 -55t-49.5 -23q-31 0 -51.5 22.5t-20.5 51.5q3 26 23 46.5t49 20.5z" />
    <glyph glyph-name="Gbreve" unicode="&#x11e;" horiz-adv-x="1591" 
d="M1356 1225l-60 -62q-86 107 -220.5 164t-278.5 57q-134 0 -252 -53.5t-204.5 -147t-135 -215t-49.5 -251.5q6 -166 75 -314q86 -167 237 -258t325 -94q154 2 294.5 75.5t231 217.5t100.5 344h-618v76h706q1 -11 1.5 -20t0.5 -23q0 -140 -47.5 -273.5t-139 -240.5
t-225 -169.5t-296.5 -62.5q-150 0 -284 58t-234.5 161.5t-157 238.5t-57.5 284q6 113 36 227q75 231 264 372t441 144q74 0 148.5 -15.5t149.5 -46t141.5 -76t107.5 -97.5zM1087 1835q-6 -73 -46.5 -129.5t-102 -85.5t-123.5 -29q-74 0 -135.5 31.5t-97 86.5t-37.5 126h59
q13 -80 74.5 -128t136.5 -48q79 0 138.5 44.5t70.5 131.5h63z" />
    <glyph glyph-name="gbreve" unicode="&#x11f;" 
d="M848 104q-131 -120 -311 -120q-189 0 -327 147t-138 385q16 160 84.5 268.5t171 161.5t213.5 53q94 0 179 -34t152.5 -100.5t105.5 -162t38 -219.5v-475q0 -122 -39.5 -214t-108 -148.5t-157 -83.5t-191.5 -27q-147 0 -272 49l24 72q117 -47 256 -47q179 0 295.5 101.5
t116.5 330.5v446q0 131 -56.5 227t-149 146.5t-193.5 50.5q-97 0 -182.5 -46t-141 -138.5t-65.5 -230.5q0 -113 52 -214.5t141 -163.5t192 -63q82 3 160 40.5t151 113.5v-105zM821 1384q-6 -74 -46.5 -129.5t-102 -84.5t-123.5 -29q-73 0 -134.5 30.5t-97.5 86t-38 126.5h59
q11 -79 73.5 -127.5t137.5 -48.5q77 0 137.5 45.5t71.5 130.5h63z" />
    <glyph glyph-name="Idotaccent" unicode="&#x130;" horiz-adv-x="457" 
d="M272 1436v-1436h-88v1436h88zM231 1704q32 0 52 -18.5t20 -45.5q0 -32 -17.5 -53.5t-54.5 -21.5q-26 0 -46.5 20.5t-20.5 50.5q0 24 19 46t48 22z" />
    <glyph glyph-name="dotlessi" unicode="&#x131;" horiz-adv-x="457" 
d="M268 973v-973h-75v973h75z" />
    <glyph glyph-name="OE" unicode="&#x152;" horiz-adv-x="2048" 
d="M1339 444q-37 -112 -104.5 -203t-151.5 -150t-180 -89.5t-194 -30.5q-125 0 -248 53.5t-220.5 152t-154.5 236.5t-57 300q3 169 60.5 308.5t154.5 236.5t216.5 147.5t244.5 50.5q222 -3 389 -127t245 -348q164 435 684 451v-76q-163 -1 -284 -60.5t-199.5 -151.5
t-115.5 -190.5t-40 -181.5h639v-72h-639q13 -282 185.5 -444.5t453.5 -183.5v-72q-13 0 -21.5 -0.5t-19.5 -1.5q-89 0 -177.5 21.5t-176.5 73.5t-163 139.5t-126 211.5zM709 47q176 0 308 97t201.5 252t69.5 317q0 121 -41.5 239.5t-117.5 214.5t-182.5 154t-233.5 59
q-128 0 -238.5 -54.5t-191.5 -147.5t-125.5 -212.5t-44.5 -238.5q0 -126 40 -247.5t117 -218t188.5 -154t250.5 -60.5z" />
    <glyph glyph-name="oe" unicode="&#x153;" horiz-adv-x="2048" 
d="M1024 285q-43 -96 -109 -163.5t-155.5 -104.5t-196.5 -37q-117 2 -229 62.5t-183 174t-71 262.5q1 150 53.5 252t131 158.5t153.5 78t137 23.5q68 0 135 -17t130.5 -53.5t114.5 -93t85 -135.5q60 141 177 217t259 82q104 0 205.5 -33t181 -104t121.5 -182l-772 -332
l-37 72l696 297q-40 94 -153 152.5t-242 58.5q-117 -15 -206 -73t-137 -152.5t-48 -211.5q2 -114 59.5 -212.5t158 -157t220.5 -58.5q147 6 258 98t144 234l80 -14q-24 -93 -75 -168t-119.5 -125t-142.5 -74.5t-145 -25.5q-151 0 -281.5 78t-197.5 227zM563 55q123 0 218 62
t147.5 160t52.5 194q0 85 -31 167.5t-87.5 145t-136.5 99.5t-171 37q-123 -4 -212.5 -68t-135 -163t-47.5 -206q0 -99 51 -197.5t142.5 -162.5t209.5 -68z" />
    <glyph glyph-name="Scedilla" unicode="&#x15e;" 
d="M1051 358l-2 -47q-8 -69 -37 -126.5t-85 -98.5t-145.5 -63.5t-216.5 -22.5h-49h-53h-72h-303v80h428h29q11 -1 24 -2q141 0 227 36t123 90.5t42 114.5q0 115 -51 188t-129 111t-224 81t-201 61q-94 36 -170.5 104.5t-93.5 184.5q0 34 -4 59q4 138 93.5 234t324.5 96h31
q12 -1 26 -2h406v-76h-406q-234 0 -308.5 -70t-78.5 -186q4 -8 4 -25q3 -75 48 -126.5t111.5 -83.5t151.5 -58t173 -51q106 -33 177.5 -68.5t118.5 -82t69 -107t22 -144.5zM403 16l60 -16l-86 -109l4 -4q23 14 76 21q67 -3 111 -47t44 -97q-6 -78 -67.5 -113.5t-153.5 -35.5
q-101 0 -180 37l25 49q78 -37 147 -37q67 0 106 26t39 70q0 41 -30.5 65.5t-81.5 27.5q-48 -7 -97 -25l-30 29l102 143z" />
    <glyph glyph-name="scedilla" unicode="&#x15f;" horiz-adv-x="907" 
d="M764 899h-432q-85 -1 -126.5 -46.5t-41.5 -113.5q3 -90 78 -125t242 -74t255.5 -93.5t96.5 -178.5q0 -148 -81.5 -208t-201.5 -60h-12h-107h-65h-289v76h457q105 0 158.5 46t56.5 122q0 75 -50.5 119.5t-108 62t-187 48.5t-183.5 54q-147 64 -147 215q0 70 55 150t188 80
h445v-74zM375 8l59 -8l-86 -109l4 -4q25 14 76 21q66 -3 111 -47t45 -97q-5 -77 -67.5 -113t-154.5 -36q-101 0 -180 37l25 49q78 -37 147 -37q68 0 107 26t39 70q0 41 -31.5 65.5t-81.5 27.5q-47 -7 -96 -25l-31 29l109 143z" />
    <glyph glyph-name="florin" unicode="&#x192;" 
d="M629 809h291v-82h-291l-49 -743q-2 -62 -20.5 -136.5t-62.5 -152t-118 -128t-182 -50.5q-40 0 -89.5 9t-91.5 21l17 101q71 -35 160 -35q79 0 135.5 40.5t90.5 101.5t49 119.5t15 92.5l49 760h-272v82h272q7 71 20 196t48 225t114 167t210 67q93 0 188 -28l-16 -80
q-84 24 -156 24q-104 0 -166 -56.5t-89.5 -144.5t-37.5 -188t-18 -182z" />
    <glyph glyph-name="circumflex" unicode="&#x2c6;" horiz-adv-x="457" 
d="M223 1327l-190 -231h-80l219 284h109l223 -284h-84z" />
    <glyph glyph-name="breve" unicode="&#x2d8;" horiz-adv-x="457" 
d="M500 1343q-6 -74 -47 -129.5t-102.5 -84.5t-123.5 -29q-74 0 -135 31t-97 86t-38 126h59q13 -81 75 -128.5t136 -47.5q78 0 138 45t71 131h64z" />
    <glyph glyph-name="ring" unicode="&#x2da;" horiz-adv-x="457" 
d="M227 1493q82 0 138 -54t59 -126q0 -93 -54 -155t-143 -62q-83 0 -139 57t-59 135q0 77 55 141t143 64zM88 1288q3 -57 40.5 -95.5t98.5 -39.5q55 0 98.5 41.5t43.5 110.5q-3 52 -43 90t-99 41q-50 0 -94.5 -38t-44.5 -110z" />
    <glyph glyph-name="tilde" unicode="&#x2dc;" horiz-adv-x="457" 
d="M-12 1128h-60q2 26 21 70t55.5 75.5t87.5 31.5q37 0 70 -13.5t73.5 -39t71.5 -40t62 -16.5q85 7 96 113h63q-31 -174 -155 -181q-83 8 -176 68q-64 41 -113 41q-40 0 -64.5 -32t-31.5 -77z" />
    <glyph glyph-name="emdash" unicode="&#x2013;" horiz-adv-x="1024" 
d="M1024 524v-75h-1024v75h1024z" />
    <glyph glyph-name="endash" unicode="&#x2014;" horiz-adv-x="2048" 
d="M2048 524v-75h-2044h-4v75h2044h4z" />
    <glyph glyph-name="quoteleft" unicode="&#x2018;" horiz-adv-x="457" 
d="M240 1436l59 -316h-76l-67 316h84z" />
    <glyph glyph-name="quoteright" unicode="&#x2019;" horiz-adv-x="457" 
d="M231 1120h-75l59 316h84z" />
    <glyph glyph-name="quotedblleft" unicode="&#x201c;" horiz-adv-x="680" 
d="M487 1436l58 -316h-74l-72 316h88zM219 1436l62 -316h-76l-70 316h84z" />
    <glyph glyph-name="quotedblright" unicode="&#x201d;" horiz-adv-x="680" 
d="M281 1436l-68 -316h-78l62 316h84zM549 1436l-70 -316h-76l58 316h88z" />
    <glyph glyph-name="quotedblbase" unicode="&#x201e;" horiz-adv-x="680" 
d="M461 147h88l-70 -315h-76zM197 147h84l-68 -315h-78z" />
    <glyph glyph-name="dagger" unicode="&#x2020;" horiz-adv-x="1024" 
d="M563 1436l-26 -424l307 28v-112l-307 33q0 -64 11 -178t15 -167q-14 -131 -20 -218.5t-8 -173.5q-3 -87 -4 -182q-1 -96 -3 -226h-32q0 172 -2 289q-3 116 -10 235t-23 276q8 71 14 122.5t11.5 107.5t5.5 115l-312 -33v112l307 -28l-30 424h106z" />
    <glyph glyph-name="daggerdbl" unicode="&#x2021;" horiz-adv-x="1024" 
d="M567 1436l-30 -424l307 28v-112l-307 33q0 -79 8.5 -159t21.5 -177q-14 -116 -22 -192t-8 -152l307 30v-110l-307 26l26 -424h-106l30 424l-307 -26v110l312 -30q0 48 -4 98t-10 104.5t-17 137.5q8 69 14 120t11.5 106.5t5.5 113.5l-312 -33v112l307 -28l-30 424h110z
" />
    <glyph glyph-name="bullet" unicode="&#x2022;" horiz-adv-x="567" 
d="M281 584q75 0 75 -76q0 -30 -20.5 -53t-54.5 -23q-32 0 -52.5 22t-23.5 50q7 75 76 80z" />
    <glyph glyph-name="ellipsis" unicode="&#x2026;" horiz-adv-x="2048" 
d="M344 143q33 0 54.5 -22.5t21.5 -52.5q0 -31 -22 -55.5t-54 -24.5q-33 0 -56.5 24.5t-23.5 55.5q0 30 23.5 52.5t56.5 22.5zM1024 156q33 0 56.5 -22t23.5 -54t-23 -56t-57 -24q-31 0 -53.5 24.5t-22.5 55.5q0 32 23 54t53 22zM1708 156q32 0 54 -22t22 -54
q0 -31 -22 -55.5t-54 -24.5t-56 24t-24 56t24.5 54t55.5 22z" />
    <glyph glyph-name="perthousand" unicode="&#x2030;" horiz-adv-x="2048" 
d="M1724 588q61 0 117 -23.5t100 -66.5t67.5 -99.5t23.5 -117.5q0 -62 -23.5 -117t-67.5 -98.5t-100.5 -67t-116.5 -23.5q-83 0 -155 41.5t-115 112.5t-43 152q0 61 24 117t69 99.5t102 67t118 23.5zM1948 281q0 93 -64.5 160t-159.5 67q-64 0 -117 -31t-82.5 -84
t-29.5 -112q0 -60 30 -112.5t83 -83t116 -30.5q95 0 159.5 67t64.5 159zM319 1460q84 0 156.5 -41t115 -112t42.5 -152q0 -61 -23.5 -117.5t-68 -99t-102 -66.5t-120.5 -24q-83 0 -153.5 42t-112 112.5t-41.5 152.5q0 83 42 153.5t112.5 111t152.5 40.5zM549 1155
q0 59 -30 112.5t-82.5 85t-117.5 31.5q-60 0 -111.5 -31.5t-81.5 -85t-30 -112.5q0 -93 64.5 -160t158.5 -67q66 0 118.5 30.5t82 83t29.5 113.5zM952 588q62 0 118.5 -23.5t100.5 -66t68.5 -99.5t24.5 -118q0 -81 -42.5 -152t-114.5 -112.5t-155 -41.5q-84 0 -154 41.5
t-112.5 113t-42.5 151.5q0 60 24 117.5t68.5 100.5t100 66t116.5 23zM1180 281q0 59 -29.5 112t-82.5 84t-116 31q-96 0 -160.5 -67t-64.5 -160q0 -92 64.5 -159t160.5 -67q62 0 115 30.5t83 83t30 112.5zM205 -25h-76l668 1049l278 436h80l-668 -1048z" />
    <glyph glyph-name="guilsinglleft" unicode="&#x2039;" horiz-adv-x="567" 
d="M449 805l-248 -318l248 -319h-97l-248 319l248 318h97z" />
    <glyph glyph-name="guilsinglright" unicode="&#x203a;" horiz-adv-x="567" 
d="M219 805l246 -318l-246 -319h-94l244 319l-244 318h94z" />
    <glyph glyph-name="trademark" unicode="&#x2122;" horiz-adv-x="2028" 
d="M831 1436v-80h-290v-764h-76v764h-289v80h655zM1128 1436l295 -709l293 709h139v-844h-75v751h-8l-328 -751h-35l-334 751h-4v-751h-76v844h133z" />
    <glyph glyph-name="periodcentered" unicode="&#x2219;" horiz-adv-x="1024" 
d="M512 1079q88 0 171.5 -47t134 -127.5t50.5 -179.5q0 -155 -99.5 -260t-252.5 -105q-100 0 -184 48t-132 133t-48 184q0 76 30.5 141t82 112.5t115 74t132.5 26.5z" />
    <glyph glyph-name="fi" unicode="&#xf001;" horiz-adv-x="1024" 
d="M844 969v-973h-80v973h80zM868 1243q0 -25 -19 -42.5t-44 -20.5q-62 8 -62 59q0 31 17.5 48.5t44.5 17.5q28 0 45.5 -16t17.5 -46zM641 1436v-72h-162q-121 -9 -182 -80.5t-61 -191.5v-119h405v-74h-405v-899h-76v1137q0 83 40.5 151.5t118 108t185.5 39.5h137z" />
    <glyph glyph-name="fl" unicode="&#xf002;" horiz-adv-x="1024" 
d="M641 1436v-72h-162q-121 -9 -182 -80.5t-61 -191.5v-119h405v-74h-405v-899h-76v1137q0 83 40.5 151.5t118 108t185.5 39.5h137zM844 1436v-1436h-80v1436h80z" />
    <glyph glyph-name="_extra03" horiz-adv-x="457" 
d="M268 973v-973h-75v973h75z" />
  </font>
</defs>
</svg>
